<svg class="svg-cognoma-logo" version="1" xmlns="http://www.w3.org/2000/svg" viewBox="0 0 669 820"><path d="M274.5 1.5c-9.1 2-15.7 5.3-31 15.7-14.9 10-18.8 11.6-33.5 13.8-7.9 1.2-16.3 4.5-21.6 8.5-1.8 1.4-6.1 6.1-9.4 10.5-6.5 8.4-12.2 12.8-19.9 15.6-33.1 12-49.6 24.8-58 44.9-2.9 6.8-5.9 19-5 19.9.2.2 2 .6 3.9.8 3.3.3 3.4.2 4.2-4.1 3.1-17.8 13.8-32.7 30.4-42.1 4.3-2.5 13.9-6.9 21.4-9.8 7.4-3 15.3-6.7 17.5-8.3 2.2-1.6 7.4-7 11.5-12.1 9.5-11.6 13.8-14 30-16.9 14.1-2.5 18.2-4.3 35.2-15.7C266.9 10.9 275 7.8 287.9 7.9c9.5 0 15.8 1.5 22.6 5.6 13.6 7.9 17.3 25.7 13.6 64.5l-.6 6.5-16.1.3c-16.1.2-16.2.2-16.8-2-.9-3.7-.7-9.8.4-9.8.6 0 1.5-1.2 2-2.6 2.1-5.4-3.4-10.4-8.7-8.1-3.1 1.4-3.4 3.1-2.4 13.3.5 4.9.8 9 .7 9.2-.2.1-10.6.1-23.2 0l-22.9-.3 5.5-1.9c12.6-4.3 19.9-10.1 28.2-22.5 9.7-14.2 13-16.9 26.6-21.1 3.9-1.3 7.2-2.4 7.2-2.6 0-.2-.7-1.8-1.6-3.6l-1.6-3.4-8.5 2.8c-4.8 1.6-10.1 3.7-11.8 4.8-4.2 2.6-10.1 9-15.3 16.8-2.4 3.4-4.5 6.2-4.8 6.2-.2 0 .2-1 1-2.3 2.8-4.1 3-9.9.7-14.6-1.2-2.3-2.9-4.5-3.7-4.8-2.6-1-9.3 1.6-21 8.1-8.8 4.8-11.5 6.8-12.6 9.3-1.7 3.6-1.4 4.3 1.7 4.3 2.2 0 6.5-2 20.7-9.9 6.6-3.6 7.9-4 8.4-2.7 1 2.6-.4 6.1-4.1 10.8-1.9 2.4-5.7 7.3-8.5 10.9-4 5.3-6.1 7-9.8 8.4-2.6 1-6.9 2.9-9.5 4.3-2.8 1.5-6.5 2.6-9 2.6-4.5.1-5.5 1.5-4.3 5.9l.5 2.2h240.6l-.3 2.5c-.1 1.4-.5 3.5-.8 4.7l-.4 2.3H211.9l.7 3.7c.4 2.1 1.9 7.6 3.3 12.3l2.7 8.5 111.7.3c71.7.1 111.7.6 111.7 1.2 0 .5-.7 2.8-1.6 5l-1.6 4h-216l4.7 8.7c2.6 4.7 5.8 10.3 7.2 12.5l2.6 3.8 92.9.2 93 .3-3.7 4.7-3.6 4.8h-85.5c-81.1 0-85.4.1-84.5 1.7.5 1 5.1 6.5 10.3 12.3l9.4 10.5 62.9.5 62.9.5-5.9 4.8-6 4.8-50.3-.3c-27.6-.2-50.2 0-50.2.4 0 1.9 27.6 21.1 40.8 28.5 7.4 4.1 7.9 3.3-6.8 10l-9.4 4.2-10.6-5.6c-50-26.7-87.6-68-108.5-119-4.8-12-11.5-33.8-11.5-37.9 0-3-1.6-3.1-10.3-.4-21.6 6.7-40.7 20.5-55.2 40-7 9.4-9.4 11.1-22 15.5-3.3 1.2-6.7 3.5-10.1 6.9-6.9 7.1-9 14.1-10.3 34.7-1.4 21-2.7 24.3-15.6 39.9-8.4 10.1-12.2 16.3-14.4 23.6-1.8 5.6-4.8 25.8-5.3 34.9-.1 3.3-1.1 5-5.8 10.1-7.8 8.5-10.2 13.9-10.8 24.4-1.2 24 8.7 34.9 27.3 29.9 2.2-.6 11-4.5 19.5-8.7 11.3-5.5 16.6-7.6 19.7-7.7 3.3-.1 4.7-.7 6.4-2.9 2.4-3 1.6-4.4-2.6-4.7-1.1-.1-2.7-.3-3.5-.4-3.2-.3-12 3-24.2 9.1-13.6 6.8-21.7 9.5-26 8.7-5.7-1.1-8.9-8-9-19.2-.1-17.7 7.7-26.3 38.2-42.6 18.5-9.9 24.2-13.8 31.6-21.8 10.3-10.9 13.3-17.7 16.4-37.2 3.1-19.2 10.3-36.1 17.5-41.1 4.9-3.4 6.5-5.4 6.5-7.9 0-3.1-3.3-6.5-6.3-6.5-2.9 0-6.7 3.9-6.7 6.8 0 1.2-1.6 4.3-3.7 6.9-7.3 9.6-12.9 24.8-15.3 41.9-2.1 15.5-5.2 22.7-13.9 31.7-7.2 7.6-11.1 10.2-30.6 20.8-13.6 7.4-16 8.4-16.3 6.8-.6-3.2 2.8-24.5 4.7-30.2 2.3-6.7 3.5-8.6 13.3-20.6 8.7-10.6 13.2-18.4 14.8-25.5.6-2.7 1.5-11.5 2-19.6 1.5-23.5 4.9-29.7 19-34.5 10.2-3.5 14-6.4 21.9-16.9 12.7-17 27.2-28.1 46.2-35.6 2.8-1.2 5.3-1.9 5.6-1.7.2.2 1.3 3.7 2.4 7.8 1.1 4.1 2.2 8.2 2.5 9.2.5 1.6.3 1.6-2.8-.3-1.8-1.1-4.3-2-5.5-2-2 0-2.3.5-2.3 4 0 2.9.4 4 1.5 4 2.3 0 10.2 7.7 14.7 14.4 2.2 3.2 5.9 9.5 8.1 14 2.2 4.4 7.6 13.4 11.9 19.9 4.3 6.5 7.8 12 7.8 12.4 0 .3-3.1 4.5-6.9 9.3l-6.8 8.6 2.3 2.7c1.3 1.5 2.5 2.7 2.8 2.7.3 0 3.3-3.5 6.7-7.8 3.4-4.2 6.5-7.8 6.9-8 .4-.1 2.4 1.9 4.6 4.5 2.1 2.6 6.7 7.8 10.3 11.5 3.5 3.8 6 6.8 5.5 6.8s-4.2-.7-8.3-1.5c-9.4-2-24.2-2.1-30.4-.2-7.2 2.3-13.8 7-22.5 16.2-26.1 27.5-26.6 42.9-2.7 83.5 3 5.2 6.4 12.4 7.5 15.9l2 6.4-4.1 4.6c-2.3 2.5-4.5 4.9-4.9 5.3-.3.5-6-1.1-12.5-3.4-14.9-5.2-21.3-5.5-29.3-1.4-7.5 3.8-13.1 9.3-23.4 22.8C93 366.6 91.6 368 89 368c-3.5 0-7 3.4-7 6.7 0 2.9 3.3 6.3 6.3 6.3 2.7 0 6.7-2.6 6.7-4.4 0-.8.7-2 1.7-2.7.9-.8 5.5-6.6 10.3-12.9 12.5-16.5 20.4-22.9 28.4-23 2.3 0 23.2 6.4 24.4 7.5.1.1-2.6 4.7-6 10.1-10.2 16.2-16.9 35-19.8 55.4-.9 6.9-.6 29.6.6 36.8l.7 4.2-3.4-.6c-1.9-.4-4.7-1.3-6.2-2.1-2.2-1.1-3.5-1.2-6.3-.3-3 1-3.3 1.4-2.3 3.1 1.7 3.2 6.7 5.7 14 7l6.7 1.2 2.7 7.6c1.5 4.2 4.4 11.3 6.5 15.7l3.8 8.2-10.2-4.3c-19-8-22.9-10.7-29.7-20.7-11.3-16.6-17.3-35.3-15.2-47.5 2.6-15.1 20.4-36.9 33.6-41.2 3.3-1.1 3.7-1.6 3.7-4.7 0-3-.3-3.4-2.7-3.4-11.8.1-34.6 23.4-40.7 41.6-.9 2.8-1.8 7.9-1.9 11.3l-.2 6.2-2.2-2.6c-2.2-2.5-2.4-2.5-5.2-1-4.4 2.2-11.2 1.9-15.2-.8-5.7-3.8-8.6-11.2-9.8-25.4-1.3-14.1-3.5-21.1-8.7-27.2l-3.7-4.2-2.8 2.7-2.8 2.7 2.9 3.4c4.6 5.2 5.9 9.4 7.6 24.7 1.1 10.8 2.1 15.3 4 19.3 6.2 12.8 20.2 17.8 32.3 11.4L88 430v2.6c0 3.4 5.2 18.9 8.6 25.6 3.4 6.8 9.8 16.4 13.8 20.6 5.1 5.6 10.8 8.9 25.4 15.2 19.7 8.4 22.1 10 29.9 20.5 13 17.6 37.5 40.1 60.1 55.4 3.4 2.3 6.2 4.3 6.2 4.4 0 .1-2.6.3-5.7.5-3.2.2-7.6.7-9.8 1.2-5.9 1.4-6 1.4-7.4-3.7-2.4-9.1-9.9-16-21-19.3-3.6-1-14.5-3.5-24.1-5.5-29.2-5.9-35.7-8.9-46.5-20.8-4.7-5.2-5.5-6.5-5-8.9.5-2.1.1-3.3-1.9-5.3-2.9-2.9-5.2-3.2-8.4-.9-3.6 2.5-2.9 6.9 1.7 11.8 2.2 2.3 6.3 6.7 9.2 9.9 11.1 12.2 19.7 16 50.8 22.2 25.9 5.1 32.8 8.1 36.8 15.8 3.4 6.6-1 24.2-7.1 28.2-1.4.9-6.3 2.5-10.8 3.5-4.6 1.1-11.2 3.2-14.8 4.7-5.6 2.3-7.9 2.7-16 2.7-10.7.1-15.8-1.3-28.4-7.6-9.7-4.8-17-9.6-30.8-20.5-5.8-4.5-10.9-8.3-11.2-8.3-.2 0-1.4 1.3-2.6 3l-2.1 2.9 5.5 4.3c4.5 3.4 5.2 4.4 3.8 4.9-.9.4-2 .5-2.4.2-.8-.4-1.3 1.6-2.3 8.5-1.3 9.6-7.5 18.2-22.1 30.4-15 12.6-18 17.9-17.2 30.2.6 8.7 4 17.3 9.1 23.1 4.7 5.4 9 8.1 17.5 11l6.6 2.2 4.6 13.4c7.3 21.2 15.3 34.9 27.8 47.6 15.5 15.8 34.8 26.7 68.6 39 8.3 3 19.7 7.5 25.3 9.9 5.6 2.4 12.2 4.8 14.7 5.3 5.7 1 12.8-.2 16.6-2.9 1.5-1.1 3-1.6 3.2-1.2.5 1.4 23.8 5.2 31.8 5.2 10.6 0 17.5-2.1 22.3-6.7 4.1-3.9 9.7-14.3 9.7-17.9 0-2.7 4.2-6.6 10.7-9.8 5.1-2.5 5.8-2.6 23.8-2.6s18.7.1 23.8 2.6c7.4 3.7 9.4 5.9 11.3 12.3 2 6.8 7.2 14.9 11.6 17.8 7.1 4.7 21.2 5.6 37.8 2.3 5.6-1.1 11-2 12.1-2 1.3 0 1.8-.4 1.3-1.2-.4-.6.8-.2 2.8 1 4.7 2.9 11.7 4.1 17.3 3.1 2.4-.5 9.1-2.8 14.7-5.3 5.7-2.5 16.2-6.6 23.3-9.2 34.2-12.3 51.8-22 67.7-37.2 14.7-14 24.4-30.3 31.5-52.2l3.6-11.5 7.3-2.3c12.3-3.8 19.9-11.4 24.3-24.3 3.2-9.4 2.8-16.3-1.2-24-2.7-5.3-5.1-8-14-15.4-15.8-13.3-21.4-21.6-23.3-34.7-.3-2.6-.9-4.6-1.3-4.4-.3.2-1.4.1-2.4-.3-1.4-.5-.6-1.4 3.8-4.9l5.5-4.3-2.2-3c-1.2-1.6-2.4-2.9-2.7-2.9-.3 0-4 2.7-8.1 6-27.7 22.2-48.7 32.1-65.4 30.8-3.4-.3-9.4-1.9-13.6-3.5-4.2-1.7-11.1-3.8-15.5-4.7-6.4-1.3-8.5-2.2-10.6-4.5-5.8-6.3-8.7-20.7-5.4-27 3.8-7.4 11.1-10.6 36.2-15.6 31.9-6.4 40.8-10.3 51.6-22.7 2.8-3.4 6.9-7.7 9-9.7 2.7-2.7 3.7-4.5 3.7-6.8 0-3.5-2.9-6.3-6.6-6.3-3 0-6.7 4.8-6 7.6 1 3.8-8.8 14.6-18.6 20.7-3.8 2.4-17 6-32.8 9.1-16.7 3.3-27 6.1-31.8 8.5-7.2 3.7-14.2 13.2-14.2 19.1 0 2.3-.1 2.3-6.7 1.1-2.8-.6-7.1-1.1-9.7-1.2-2.5-.2-4.6-.4-4.6-.5 0-.1 4.9-3.7 11-7.9 21.8-15 42.1-34.2 55.8-52.7 8-10.7 10.3-12.4 24.7-18.3 12.8-5.2 20.4-9.2 25.2-13.2 9.2-7.4 20.8-27.8 24.7-43.2l2.2-8.7 4.4 2.3c9.1 4.6 21.4 1.7 27.9-6.6 4.8-6 6.4-11.5 7.5-26.1 1-11.4 2.5-16.7 6.2-21.6 1.9-2.4 3.4-4.8 3.4-5.2 0-.5-1.1-1.8-2.4-3.1l-2.3-2.2-3.3 3.7c-4.7 5.4-7.8 12.8-8.5 20.3-1.7 18.3-2.3 21.6-4.6 26.3-3.9 7.7-13.7 11-21.1 7.2-3-1.6-3.1-1.5-5.3 1.2l-2.2 2.8-.5-8.2c-.4-6.8-1.1-9.4-4.1-15.4-9-18.3-27.5-35.8-37.9-35.8-2.6 0-2.8.3-2.8 4 0 3.4.3 4 2 4 6.4 0 18.3 10.1 26.6 22.6 6.9 10.4 8.6 15.1 8.7 24.4.2 17.5-13.4 44.7-26.7 53.5-5 3.4-26.6 13-26.6 11.9 0-.2 1.3-3 2.9-6.2 1.5-3.1 4.3-9.8 6.2-14.7 1.8-5 3.4-9.2 3.6-9.4.1-.2 2.5-.7 5.2-1.2 6.3-1 11.9-3.6 13.2-6.1 2.3-4.2-3.2-5.4-11-2.4-2.4.9-4.5 1.5-4.8 1.3-.2-.3.1-4.5.8-9.3 1.6-12.3.6-31.3-2.5-44.4-4.2-18.2-9.5-30.9-18.8-44.9-2.6-4.1-4.5-7.8-4.1-8.2.5-.3 5.2-2.1 10.6-3.9 17.4-5.7 23.1-3 39.7 19 4.8 6.3 9.7 12.4 10.9 13.4 1.1 1.1 2.1 2.4 2.1 3.1 0 2 3.5 4.5 6.2 4.5 2.8 0 5.7-2.7 6.3-5.8.5-3-2.4-6.2-6.5-7.1-3-.6-4.7-2.3-11.8-11.6-11-14.7-15.5-19-23.2-22.8-8.8-4.4-15-4.2-28.4.7-5.4 2-10.6 3.6-11.5 3.5-.9 0-3.7-2.4-6.3-5.3-4.6-5.2-4.7-5.4-3.6-9.2 1.3-4.8 3.8-9.8 12.8-25.6 11.2-19.5 15.1-35.2 11.6-47-3.6-12.6-24.2-36.7-35.9-42.2-9.2-4.2-21.5-4.9-36.6-2.1l-3.5.7 7.4-8.4c4.1-4.6 8.1-9.1 9-10.1 1.5-1.6 1.9-1.3 7.4 5.4l5.8 7.1 2.8-2.7 2.8-2.7-5.9-7.2c-3.2-4-5.9-7.5-5.9-7.9 0-.3 3-5.2 6.6-10.8 6.4-9.9 16.2-28.6 20-38.2 2.1-5.3 9-13.2 12.9-14.7 2-.8 2.5-1.6 2.5-4.5s-.4-3.5-2.1-3.5c-1.1 0-3 .5-4.1 1.1-1.9 1-2 .9-1.5-1.2.4-1.3 1.2-5 1.9-8.2.7-3.6 1.7-5.7 2.6-5.7 2.4 0 16.1 6.8 23 11.4 10 6.7 18.3 14.6 26.2 25.2 8 10.6 12.4 14 22.1 16.9 8.4 2.6 14.2 8.1 16.3 15.7.9 2.9 2 11.6 2.5 19.3 1.6 23.3 3.5 28.4 16.4 44.2 12.5 15.4 15.4 21.8 17.1 38.3.4 3 .9 7.7 1.2 10.4l.6 4.9-6.3-3.5c-3.5-1.9-10.4-5.7-15.4-8.3-16.7-9-25-15.5-31.5-24.9-4.4-6.5-6.5-13.1-8.5-26.6-2.6-17.4-8.9-33.7-16.6-42.4-1.6-1.9-2.9-4.5-2.9-6 0-5.7-8.2-7.2-11.6-2.1-1.4 2.1-1.4 3-.4 5.5.7 1.8 2.2 3.3 3.6 3.6 3.6.9 8.3 7 12.6 16.1 3.7 7.9 5.9 16.2 9.2 35 3.3 19.2 14.3 32.9 35.8 44.9 4.8 2.7 13.8 7.8 20.2 11.2 20.8 11.6 28.8 21.5 28.7 36 0 8.7-1.4 14.3-4.5 17.9-2 2.3-3.1 2.7-7.4 2.6-4.3-.1-8-1.4-21.9-8.1-16.1-7.8-18.2-8.6-24.6-9.6-2.8-.5-8.7 1.1-8.7 2.2 0 .4.9 1.8 1.8 3 1.4 1.8 3 2.5 6.3 2.7 3 .2 8.3 2.2 16.9 6.5 17.2 8.6 23.9 11 30.9 11 13.2 0 19.9-10.9 18.9-30.6-.6-10.5-4.4-18.8-12.1-26.1-2.9-2.8-5.1-5.6-4.9-6.2.6-1.8-1.6-22.3-3.4-31.1-2.1-10.4-6.3-18.2-16.1-30.1-12.9-15.6-14.5-19.8-15.7-42.2-1-17.7-3.4-25.6-10-32.5-3.7-4-6.8-5.7-15-8.4-8.3-2.7-10.6-4.6-17.5-14.1-12.9-17.9-31.8-31.9-52-38.7-4.9-1.7-9.3-3-9.9-3-.5 0-1.5 2.8-2.1 6.2-6.9 36.1-24.6 71.6-50.2 100.5-24.9 28.1-61.9 52.5-101.4 66.8-51.8 18.9-90.3 40.9-118.3 68-27.1 26-41.1 51.2-45.7 82.1-3.8 25.8.4 50 12.9 74.8 9.8 19.2 20 32.9 37.8 50.1 19.9 19.4 38.2 32 69.4 47.6l21.2 10.6-9.2 3.7c-5 2.1-9.9 3.8-10.8 3.8-2.6-.1-24.6-9.6-39.1-16.8-35.3-17.7-65.3-40.4-85.1-64.3-23.7-28.7-37.6-61.9-37.6-89.8 0-35.1 12.8-65.7 39-93.6 28.6-30.5 65-53.1 120.5-75.2 50.8-20.1 92.3-47.9 118.7-79.4 23.6-28.2 37.7-59.2 40.4-89l.7-7.3-4.4.7c-3.8.5-5.3.2-11.1-2.9-3.7-1.9-8.5-4-10.5-4.7-2.7-.8-4.6-2.3-6.5-5.2-1.5-2.3-5.4-7.5-8.7-11.5-4.4-5.2-6.1-8.1-6.1-10.2 0-1.6.4-3.1.8-3.4.5-.3 6 2.4 12.3 5.9 10.5 6 17.2 8.6 18.5 7.2 1.1-1.1-2-7.7-3.9-8.3-1-.3-6.1-3-11.2-6-5.1-2.9-11.4-5.9-14-6.6-4.6-1.2-4.8-1.2-7.1 1.5-3.3 3.8-4.1 9.2-2.1 14.6 1.7 4.9 1.6 4.8-3.8-2.9-5.1-7.3-9.2-11.7-13.6-14.5-3.4-2.2-17.9-7.5-20.5-7.5-.9 0-3.4 4.8-3.4 6.6 0 .2 3.7 1.5 8.3 2.9 12.4 3.8 16.1 7 27.2 23.4 5 7.5 11.6 13.3 18.5 16.3 3.6 1.6 7.9 3.6 9.5 4.3 2.6 1.2.3 1.4-19.8 1.4l-22.8.1.6-5.8c.4-3.1 1.2-7.1 1.8-8.9.8-2.5.7-3.6-.6-5.6-2.5-3.8-8.4-4-10.9-.3-1.3 1.9-.9 6.3.7 7.6 1.5 1.3 2 6.7.9 10.7-.6 2.3-.9 2.3-16.9 2.3h-16.3l-.6-9.3c-.4-5-.9-12.4-1.2-16.2-.6-9.1 1-24.6 3.2-31.3 5.4-16.4 25.5-24.3 47.6-18.7 7.7 1.9 12.1 4.2 26.1 13.7C435.4 33.4 440 35.4 453.8 38c6.2 1.1 12.5 2.6 14 3.1 5.3 2 10.3 6.3 15.9 13.7 7.2 9.3 14.9 15.1 25 18.8 33.7 12 49.6 26.4 55.1 50l1.9 7.9 3.4-.3c1.9-.2 3.6-.6 3.9-.9.9-.9-4-17.6-7-23.7-7.8-15.8-23.4-28.4-46-36.9-17.7-6.8-21.7-9.3-29.2-18.7-11.1-13.9-16.4-17.2-32.7-20.1-5.8-1.1-12.2-2.4-14.1-3-4.2-1.4-13.1-6.6-22-12.9-10.1-7.2-15.1-9.7-24.5-12.5-24.3-7-48.7 1.2-56.7 19.2-4.6 10.4-6 28.4-4.3 53.3l.8 10h-5.9l.9-10.3c.5-5.6.7-17.2.4-25.7-.5-16.6-2.1-23.9-7.2-31.9-4.4-7-13.4-12.9-23.8-15.7-6.4-1.7-19.2-1.7-27.2.1zM448 110.7c0 2.6-2.3 8.3-3.3 8.3H334l-109.5.1-1.2-3.3c-.6-1.8-1.2-3.9-1.2-4.6-.1-.9 23.1-1.2 112.9-1.2 62.2 0 113 .3 113 .7zm-16.3 38.5l-2.5 4.3H241l-2.6-4.3-2.5-4.2h198.3l-2.5 4.2zM408 180.5c0 .5-1.7 2.6-3.7 4.7l-3.7 3.8H269.2l-3.6-4.2c-2-2.3-3.6-4.4-3.6-4.7 0-.3 32.8-.6 73-.6 45.9 0 73 .4 73 1zm-186.4 34c13.7 2.6 22 6.1 30.8 12.9 9.3 7.3 25.2 17.7 34.4 22.6 3.4 1.8 6 3.5 5.8 3.7-.3.3-6.5 3.1-13.8 6.2-19.8 8.6-34.8 16.4-53.9 27.9l-3.6 2.2-4.1-3.6c-2.3-1.9-4.2-4.2-4.2-5 0-2.1-3.7-5.4-6-5.4-2.7 0-7 4.3-7 7s3.5 6 6.3 6c1.3 0 3.6 1.3 5.1 2.9l2.8 2.9-3.9 2.8c-6.6 4.9-23.7 19.1-25.7 21.3-1.1 1.1-2.2 2.1-2.6 2.1-.3 0-1.7-2.6-3-5.8-2.3-5.5-3.5-7.7-13.4-24.7-6-10.3-9.7-22-9.7-30.4 0-7.8 2.8-14.1 11.1-24.4 10.7-13.4 19.5-20.4 28.7-22.7 4.4-1 15.7-.4 25.9 1.5zm258.1 1c9.9 4.5 28.5 25.6 32.2 36.4 3.3 10-.8 25.3-12.1 44.4-4 6.7-8.2 14.6-9.4 17.5-1.1 2.9-2.4 5.5-2.7 5.8-.3.4-3.4-1.9-6.9-5.1-4.9-4.5-14.4-11.9-25.7-20.1-.7-.5 5.4-5.3 6.8-5.4 5.2-.1 7-8.7 2.5-11.6-4.5-3-7.6-1-11.3 7.4-.3.7-1.7 2-3.1 2.9-2.4 1.4-3 1.2-14-5.3-6.3-3.7-18.7-10.3-27.5-14.5-14.1-6.8-19.2-9.1-29.5-13.1-2.3-.9-1.8-1.3 6.8-5.8 11.3-6 27.5-16.4 36.2-23.5 8.3-6.6 8.9-6.9 18.9-9.5 18.5-4.7 29.4-4.8 38.8-.5zm-121.3 6.1c-5.4 3.5-12.9 8-16.6 10l-6.9 3.6-9.7-5.6c-5.3-3-12.8-7.5-16.7-10l-7-4.5 32.5-.3c17.9-.2 32.9-.1 33.4.1s-3.6 3.2-9 6.7zm28.4 45c39.9 17.1 70.8 36.4 94.6 59.4 25.8 24.9 38.5 45.9 44.8 74 1.9 8.8 2.3 13.2 2.3 27.5-.1 15.2-.4 18-2.7 26.7-4.8 17.7-13.5 35.6-25.8 53.1-7.9 11.3-31.1 34.9-43.8 44.5-22.3 17.1-49.9 32.1-84.7 46.2-63.8 25.8-106.7 55.3-133.9 92.4-16.6 22.5-25.1 46-27.2 74.8l-.6 8.8H243v5.9c0 3.5.5 6.1 1.1 6.3 1.4.5-12.9 13.1-17.3 15.4-4.3 2.2-9.8 1.3-20.5-3.5-4.8-2.2-16.9-6.9-26.8-10.6-33.7-12.4-51.6-22.6-66.3-37.9-11.6-12.1-18.6-23.6-25.3-41.8-3.7-10.1-3.7-10.9-.1-9.9 6.6 2 13.4 5.6 16.2 8.8 1.7 1.9 5.5 8.3 8.5 14.4 5.8 11.4 10.8 18 15.8 20.6 5.3 2.7 24.6 1.9 31.4-1.4 6.2-2.9 7.8-9.8 4.7-20.2-2.3-7.8-2-11.9 1.5-19.9 5.7-12.9 6.1-22.5 1.3-32.2-3.6-7.2-6.8-9.2-22.6-14.1-7.2-2.2-16.4-5.6-20.4-7.5-6.5-3.1-7.2-3.8-7.2-6.4 0-5.4-6.7-7.8-10.8-4-3.9 3.6-2.5 8.2 3.3 11.2 1.7.8 5.5 2.9 8.5 4.7 3 1.7 13 5.6 22.2 8.7 18.4 6.1 19.5 6.9 21.8 15.4 1.6 6.1.6 12.5-3.5 22-4 9.1-4.3 13.8-1.6 24.4 1 3.8 1.6 7.8 1.3 8.8-.5 2.2-5 3.5-15.3 4.4-12.1 1-15.6-1.7-24.2-19.4-8.9-18.5-12.8-21.4-38-28.3-18.5-5-24.4-9.3-28.7-20.6-5.1-13.4-2.3-20.9 12.3-32.9 15.8-12.9 22.8-23.2 25-36.4.6-3.6 1.2-6.7 1.3-6.9.2-.2 2 1 4.1 2.6 12.3 9.7 28.3 18.4 41.4 22.4 9 2.8 23.9 3.1 30.6.6 4.5-1.7 5.3-1.2 5.3 3.7 0 3.9 5 12.5 9.3 16 5.9 4.8 14.2 8.8 29 13.9 7.1 2.5 13.1 4.7 13.4 5 .2.3-2.9 4.6-7.1 9.6-4.1 5-9.4 11.7-11.7 15l-4.1 5.9-5.9-5.9c-3.3-3.3-5.9-6.3-5.9-6.9 0-1.3-3.4-3-6.1-3-5.8 0-8.2 8.4-3.4 11.6 1.4.9 3.4 1.4 4.7 1.1 1.7-.5 3.1.3 6 3.4 5.3 5.5 5.6 7.6 1.9 13.6-4.7 7.6-15.5 30.8-18.7 40.1l-2.9 8.3-5-.6c-2.7-.3-9.7.1-15.5.8-12.1 1.7-19.4 1.4-24.7-.8-7-3-12.7-10.1-12.2-15.3.6-6.1-2.8-9.2-8.4-7.8-4.6 1.1-5.5 8.8-1.5 11.3.8.4 2.6 2.9 4.1 5.5 3.9 6.7 11 12.5 17.6 14.5 6.3 1.8 16.4 2 26.1.4 7.8-1.3 15.7-1.4 16.4-.3.3.5-.1 3.3-.9 6.3-.7 3-1.5 6.7-1.7 8.4-.3 2.8-.1 3 3.4 3.3l3.6.3 1.1-5.3c6.5-30.8 23.8-66.5 45.1-93.3 27.6-34.5 66.9-61.9 111.4-77.5 17.9-6.3 42.8-17.8 59-27.2 49.4-28.7 82.6-66.6 96.4-109.8 4.5-14.1 5.6-22.9 4.9-38.8-.7-14.7-2.1-23-6.3-35.7-14.1-42.8-58.6-84.4-120.3-112.5-6.3-2.8-12.6-5.6-14-6.2-2.4-.9-2-1.2 6.4-4.8 5-2.1 10-3.8 11.3-3.9 1.2-.1 10.2 3.3 20 7.5zM339 285.2c0 1.3.1 10.2.1 19.8 0 9.6.3 18 .7 18.6.4.7 6.6 4.5 13.7 8.7 7.2 4.1 23.4 13.4 36 20.7 12.7 7.4 26.5 15.3 30.8 17.7l7.7 4.4v13.5c0 7.4-.3 13.4-.7 13.4-1.7.1-20.9.1-22.5.1-1.5-.1-1.8-1.1-1.8-6.5v-6.3l-11.2-6.6c-6.2-3.6-21.5-12.4-34-19.7L335 349.9l-15.2 8.9c-8.4 4.9-23.7 13.7-34 19.7L267 389.3v79.2l19.8 11.4c10.8 6.3 26.1 15.1 33.9 19.7l14.3 8.3 15.7-9.1c8.7-5 21.7-12.5 28.8-16.6 7.2-4.2 15.4-8.9 18.3-10.5l5.2-2.9V455h25v22.6l13.5 7.8c7.4 4.3 13.5 8.3 13.5 9 0 .6-.8 2.3-1.7 3.6-.9 1.4-1.7 2.6-1.8 2.8-.1.1-6.3-3.4-13.9-7.8l-13.7-8-21.2 12.2c-11.7 6.7-26.4 15.2-32.7 18.8-6.3 3.6-15.9 9.2-21.2 12.4l-9.8 5.7v18c0 19.5.4 18-5.5 18.3-1.9.1-2-.7-2.5-18.3l-.5-18.5-18-10.4c-39.6-22.9-58.3-33.7-64.2-37.1l-6.3-3.5V380.3l-14.4-8.4-14.4-8.3 1.9-3.9 2-3.8 3.2 1.9c10.3 6.2 25.3 14.5 26.2 14.5.5 0 9.3-4.9 19.5-10.8s29-16.8 41.8-24.2l23.2-13.5V283h4c3.5 0 4 .3 4 2.2zm-96.7 299.7c5 3.1 8.1 8.4 14.2 24.4 3 7.7 5.3 14.2 5.2 14.2-1.7.8-19.6 15.3-24.4 19.8l-6.4 6-11.2-3.8c-29.8-10.2-37.7-15.5-40.2-27.3-.6-2.8-1.1-3.2-3.8-3.2-4.7 0-2.1-1.7 5.3-3.5 14.5-3.4 16.8-4.4 20.5-8.7 2.1-2.5 4.4-6.9 5.7-10.9l2.2-6.8 7-1.1c3.9-.6 7.8-1.3 8.6-1.5 3.9-1 14.1.4 17.3 2.4zm210.7-.8l6.5 1.2 1.9 5.9c2.1 6.5 6.2 12.9 10.2 15.4 1.4 1 6.2 2.5 10.7 3.5 4.5.9 9.6 2.3 11.2 3l3 1.3-3.1.4c-2.8.3-3.3.8-4.3 4.8-2.5 9.9-11.3 15.9-35.8 24.4l-12.2 4.2-3.8-3.1c-10.8-9.1-23.5-19.1-26.2-20.7-1.7-1-3.1-2.2-3.1-2.7 0-1.9 9.2-25.4 11.5-29.2 5.9-10.2 13.5-12.1 33.5-8.4zm-185.8 8.8c5.7 2.7 13.9 6.3 18.2 8.1l7.8 3.3-5.3 3c-3 1.6-8.2 4.7-11.7 6.8-3.5 2.2-6.7 3.9-7.2 3.9-.4 0-2.1-3.3-3.6-7.3-1.5-3.9-4.2-10.7-5.9-15-1.8-4.2-3.2-7.7-3-7.7.1 0 4.9 2.2 10.7 4.9zm139.6 9.3c-2.8 7.3-5.4 13.7-5.9 14.2-.4.5-2 .1-3.6-.9-1.5-1.1-6.7-4-11.5-6.5l-8.8-4.6 14.3-6.3c7.8-3.4 15.3-6.8 16.7-7.6 1.4-.8 2.8-1.4 3.1-1.5.4 0-1.6 6-4.3 13.2zm172.5-5.3c1.1 12.5 8.6 23.8 24.4 36.8 12.4 10.2 15.6 14.9 15.4 22.8-.1 5.3-2 11.5-5 16.5-4.5 7.5-10 10.6-26.3 15-24 6.5-28.9 10.1-37.5 27.7-9.1 18.8-11.8 20.9-25.2 19.8-9-.8-13.1-1.8-14.3-3.8-.8-1.3-.5-2.8 1.9-12.4 2-7.9 1.4-13-2.7-22.3-3.8-8.4-4.7-15.5-3.1-21.7 2-7.5 4.1-8.9 21.8-14.7 8.9-3 18.8-6.9 22-8.6 3.2-1.8 7-3.9 8.4-4.6 5.4-2.9 6.8-7.7 3.4-11.4-3.6-4-10.5-1.4-10.5 4 0 2.3-.9 3.2-6.4 5.9-3.5 1.7-12.6 5.1-20.4 7.6-7.7 2.5-15.5 5.6-17.4 6.8-2 1.3-4.5 4.5-6.3 8.2-2.6 5.2-3 7-2.9 14 0 6.9.5 9.1 3.7 16.3 4.1 9.2 4.5 12.8 2.1 20.9-2.3 8-1.5 15.9 1.9 18.9 3 2.6 10 4.2 20.2 4.8 14.8.7 20.4-3.5 29.6-21.9 3.3-6.6 7.4-13.4 9-15.2 4.1-4.1 18.9-10.8 18.9-8.4 0 2.1-6.4 19-9.7 25.6-11.4 22.7-29.9 39.8-56.4 52.4-5.7 2.7-18.5 7.9-28.4 11.5-9.9 3.7-21.4 8.2-25.5 10.1-17 7.7-19.3 7.4-31.9-3.5-5.1-4.4-8.5-8-7.6-8 1.2 0 1.5-1.3 1.5-6v-6h34.1l-.3-3.8-.3-3.7-120.9-.3-120.8-.2.6-3.1c.3-1.7.6-3.9.6-4.8 0-1.5 9.8-1.6 120.1-1.3l120.1.2-.6-3.7c-1.5-8.7-3.9-19.2-4.7-20.4-.7-1.2-19.6-1.4-114.9-1.4-62.7 0-114-.3-114-.7 0-.4.7-2.6 1.6-4.8l1.6-4h110.9c75.3 0 110.9-.3 110.9-1 0-1.4-5.4-12.1-9.7-19.2l-3.4-5.8h-96.5c-53 .1-96.4-.3-96.4-.7.1-.4 1.4-2.5 3.1-4.6l3-3.7h180.1l-3.3-4.1c-1.8-2.3-6.8-7.9-11.2-12.5l-7.9-8.4h-66c-73.1 0-68 .5-59.4-6.3l4-3.2 54.4-.5 54.4-.5-9-6.8c-9.8-7.3-20.9-14.4-34-21.8l-8.2-4.6 11.5-5.2 11.6-5.1 10 5.1c37.2 19.1 67.6 45.8 89.5 78.6 13.5 20.3 26.3 50.9 30 72.4l1.7 9.6 3.6-.4c2-.3 3.7-.6 3.8-.7.2-.1-.4-4-1.2-8.7-.8-4.6-1.5-8.5-1.5-8.7 0-.6 9.1-.1 14.5.8 9.4 1.6 20.5 1.4 26.6-.4 6.6-1.9 13.5-7.5 17.4-14.2 1.5-2.5 3.6-5.5 4.6-6.5 4.2-4.2 1.2-10.9-4.7-10.9-4.4 0-6.8 3.4-5.9 8.2 1.3 6.8-8.7 15.9-19 17.2-2.2.3-9.7-.2-16.7-1-6.9-.8-14-1.3-15.8-1.2-3.1.3-3.1.2-5.9-8.2-4.6-14.1-14.9-36.3-21.4-46-1.6-2.5-1.6-2.7 1.4-6.3 2.2-2.7 3.8-3.7 6-3.7 4 0 7.1-3.3 6.7-7.3-.6-6.3-9.8-7.7-12.1-1.9-.6 1.5-2.7 4.2-4.8 6l-3.7 3.3-3.3-4.8c-2.8-4.1-10.8-13.7-18.1-21.9l-1.9-2.2 11.2-3.7c12.1-4.1 24.9-10.1 28.9-13.7 4.6-4.2 7.9-9.3 9.1-14.3.6-2.8 1.3-5.5 1.5-6.2.2-.9 1.4-.9 4.6.4 6.8 2.5 21.6 2.2 30.8-.6 9.8-3 26.5-11.7 36.5-19.1 4.4-3.2 8.3-5.9 8.6-5.9.3-.1.9 2.6 1.2 5.8zm-233.6 31.4c5.4 3 13.4 7.7 17.8 10.5l8 5.2H335c-31.4 0-36.2-.2-34.5-1.4 7.7-5.4 32.8-19.6 34.6-19.6.5 0 5.2 2.4 10.6 5.3zm63.3 46.2l4.5 4.5H256.6l3.9-4.1c2.2-2.3 4.8-4.4 5.7-4.7.9-.4 32.4-.6 70-.5l68.3.3 4.5 4.5zm26.3 34c1.5 2.5 2.7 4.8 2.7 5 0 .3-46.4.5-103.1.5h-103l2.8-5 2.8-5h195l2.8 4.5zm13.2 33.7c.4 1.8.9 4.1 1.1 5 .5 1.7-5.4 1.8-113.9 1.8-62.9 0-114.6-.2-114.9-.5-.3-.3-.1-2.6.5-5l1-4.5h225.5l.7 3.2zm-159 34.9c4.1 3.6 4.2 4.9 1.5 12.3-3.9 10.4-10.9 14.2-25.2 13.9-5.1-.2-21.7-3-22.7-3.8-.5-.6 6.6-6.7 12.6-10.7 2.9-2.1 6.9-4 8.8-4.4 3.3-.6 3.5-.9 3.5-4.6v-4l-3.7.6c-2.1.4-5.9 1.8-8.5 3.1l-4.8 2.4V774h34.9l3.6 3.1zm128.5.9v4l-4.8-2.4c-2.6-1.3-6.5-2.7-8.5-3.1l-3.7-.7v4.1c0 3.3.4 4.1 1.8 4.1 3.3 0 11.6 4.9 17.7 10.3l6 5.4-9.5 1.8c-10.4 1.9-21 2.1-26.9.5-6.5-1.7-12.3-9.3-13.7-17.8-.6-3.7-.3-4.3 2.7-7.1l3.4-3 17.8-.1H418v4z"/><path d="M140 131.1c-2.5.4-8.2 2.5-12.8 4.7-4.6 2.3-8.8 4.2-9.4 4.4-.7.3-.8 1.8-.4 4 .6 3.4.8 3.6 3.4 2.8 1.5-.4 6.9-2.7 12-5 9.8-4.4 13.4-4.7 16.5-1.2 2 2.3 2.5 4.3 3.7 13.5 1.6 13.1 4.6 18.1 16.9 28.8 7.7 6.7 11.1 12.3 11.1 18.3 0 3.7 0 3.7 3.8 3.4l3.7-.3-.2-5.3c-.3-7.8-4-13.7-14.4-23.2-4.9-4.5-9.6-9.5-10.4-11.1-.9-1.6-2.2-7.4-3-12.9-.7-5.6-2.2-11.5-3.2-13.2-3.6-6.2-9.7-8.9-17.3-7.7zm381 .1c-7.8 2.2-11.2 8-12.9 22.4-1.2 9.8-3.6 13.8-14 23.3-9.6 8.7-12.7 13.5-13.7 21.3-.9 6.5-.3 7.5 4 7 3.3-.4 3.6-.7 3.6-3.8 0-6.4 2.7-10.7 12.5-19.7 11.4-10.6 14-15.3 15.5-28.2 1.1-10 2.9-13.5 7.7-14.9 2.6-.7 4.7-.1 13.2 3.8 12.1 5.5 13.6 5.7 14.5 1.4.3-1.7.5-3.2.4-3.3-.2-.1-4.8-2.2-10.3-4.7-11.3-5.1-15.4-6.1-20.5-4.6zm-397.1 99.5c-5.5 5.8-15.8 19.9-17.5 23.8-1.9 4.7-1.8 11.5.4 17.2 1 2.7 5 9.6 8.9 15.4 4 5.8 7.9 12.3 8.7 14.4 1.8 4.2 2.1 10.1.6 13.9-.8 2.3-.6 2.8 2 4.1 3.9 2 3.9 2 5.6-2 3.5-8.5.8-18-9.3-33-8.3-12.5-10.5-17-10.5-22.2 0-4.7 1.1-6.6 9.8-17.7 4.6-5.8 4.7-5.9 6.3-3.9 2 2.5 5.3 4.3 8 4.3 1.8 0 2.1-.6 2.1-3.9 0-3-.4-4-2-4.4-1.1-.3-2.2-1.7-2.5-3.3-1.6-7.4-5.3-8.3-10.6-2.7zm412.3-2.5c-.5.7-1.3 2.8-1.7 4.7-.4 2-1.4 3.5-2.6 3.8-1.7.5-2.6 4.2-1.6 7 .5 1.7 6.1.3 8.7-2.2l2.8-2.7 5.9 7.9c3.3 4.3 6.5 8.8 7.1 10 3.1 5.8.3 14.2-9.2 27.6-9.6 13.5-12.4 23-9.4 32.8 1.3 4.4 1.8 4.6 5.7 2.3 2.7-1.6 2.7-1.8 1.6-5.2-2.3-6.6-.4-12.2 8.6-25.4 11.2-16.6 14.1-25.7 10.5-34.1-1.4-3.4-12.9-19.1-17.9-24.5-3.2-3.3-6.7-4.1-8.5-2zm-432.8 50.6c-2.4.2-3.3 1-4.3 3.7-2.3 6.5-14.6 14.6-26.5 17.4-4.3 1.1-5.4 1-8.3-.6-3.2-1.7-3.3-1.7-6 .3-3.4 2.5-4 5.7-1.9 9 1.9 2.8 6.9 3.3 10 .9 1.1-.8 3.2-1.5 4.6-1.5 3.4 0 12-2.9 18.9-6.5 7.4-3.7 15.3-11.8 17-17.4 1.4-4.9.9-5.8-3.5-5.3zm457.9.9c-1.1 2.8 2.8 10.2 7.8 14.8 7.9 7.4 20.3 12.4 40.2 16.2 7.2 1.4 9.9-9.1 3-11.8-2.2-.8-3.5-.7-6.1.7-2.8 1.5-3.9 1.6-9 .4-12.7-2.8-24.8-10.5-27.3-17.5-1-2.7-1.8-3.4-4.7-3.7-2.2-.3-3.6 0-3.9.9zM12.1 349c-2.2 3.4-4.6 8.1-5.2 10.3-1.7 6.4-.6 16.1 3.4 28.3 6.2 19 5.6 28-3.5 54.9-7.1 21.2-8.4 30.4-5.3 40.5 2.8 9.2 7.6 14.6 19 21.5 12 7.2 13.8 10.1 16.1 25 1.8 11.9 6.5 24.5 11.1 29.6 1.9 2.1 5.4 4.6 7.9 5.5 4.2 1.6 4.8 1.6 7.9.1 3.9-1.9 7.9-6.9 11.4-14.6 2.3-4.8 2.4-5.7 1.4-11.5-.6-3.5-2.7-9.8-4.8-14.1-2.4-5.1-3.5-8.6-3.1-10.1.3-1.2 4.5-5.5 9.3-9.6 5.8-4.9 9-8.4 9.9-10.8 2-5.6 1.6-13.8-1.1-22.5-1.4-4.4-2.5-8.8-2.5-9.8 0-1.3-.8-1.7-3.5-1.7-3.4 0-3.5.1-3.5 3.8 0 2.2.9 6.5 2 9.7 2.1 6.2 2.6 15.4 1 18.5-.5 1-3.8 4.1-7.4 6.8-13.5 10.7-14.8 14.8-8.6 28.3 6.5 14 6.4 18.2-.8 27.6-2.9 3.9-4 4-7.6 1.2-5.1-4-10.5-18.5-12.1-32-.7-6.4-5.1-16.3-8.6-19.6-1.3-1.2-6-4.2-10.4-6.6C6 487.5 3.8 476 14.2 445c6.8-19.9 8.2-27.6 7.6-40.1-.4-7.1-1.4-12.1-4-20.4-2-6.1-3.8-12.2-4.1-13.8-.8-4.9 1.2-12 5-17.5 1.9-2.9 3.4-5.4 3.2-5.5-.2-.1-1.6-1.2-3-2.5l-2.7-2.3-4.1 6.1zm637.6-3.6c-3.1 2.5-3.4 3.8-1.1 5.7.8.7 2.7 3.5 4 6.2 3.7 7.1 3.3 12.7-1.6 28.2-3.7 11.4-4.2 14.1-4.2 22.5 0 11.4 1.6 18.7 8.4 38.5 10 29.2 7.3 41.6-11 51.4-7.9 4.1-12.8 8.3-15.1 13-1.8 3.5-2.5 6.3-5.5 22.3-2.6 14.1-10.9 27-15.4 24.2-.9-.6-3.2-3.5-5-6.5-2.9-4.6-3.3-6.1-2.9-10.4.2-3 1.8-8 4-12.5 4.9-10.4 5.2-12 2.9-17.3-1.4-3.2-4.3-6.4-10-11.1-4.5-3.7-8.4-7.7-8.8-8.9-1.2-3.8-.7-10.1 1.5-17.1 1.2-3.8 2.1-8.4 2.1-10.3 0-3.3-.1-3.4-3.7-3.1-3.2.3-3.7.7-4 3.3-.2 1.6-1.3 5.9-2.4 9.4-2.2 7.4-2.5 16.8-.5 21.5.8 2 4.6 6 9.3 9.9 11.5 9.5 11.5 9.7 6.4 20.7-3.2 6.9-4.4 10.8-4.7 15.8-.6 6.5-.5 6.9 3.8 13.6 5.3 8.6 8.6 11.1 13.9 11 10.2-.3 18.7-14.4 22.4-37.2 1.6-9.6 3.9-15.4 7.1-18.3 1.1-.9 5.3-3.5 9.4-5.9 9.7-5.4 12.4-8.1 16.3-16 3-6 3.2-7.2 3.2-16.5-.1-9.6-.4-10.8-6.2-28-9.7-28.7-10.1-36.3-3.2-58.3 2.5-8 3.9-14.2 3.9-17.7 0-6.6-2.9-14.6-7.3-20.1l-3.3-4.1-2.7 2.1z"/><path d="M19.1 513.7c-6.3 7.6-7.6 11.7-7.6 23.3.1 9.9.4 11.4 5.2 26 6.5 19.9 6.2 18.2 7.3 34.5.6 7.7 1.7 16.5 2.6 19.5 1.9 6.9 7.1 14.6 13.3 19.8l4.8 4.1 2.7-2.8 2.6-2.7-5.9-5.6c-9.4-8.9-11.2-13.9-12.6-36.7-.7-11.7-1.3-14.3-7.1-31.6-4.7-14.3-6.4-24.6-5-31.9.4-1.9 2.2-5.8 4.2-8.6 3.6-5.2 3.6-6.9.1-9.9-1.2-1-2.1-.5-4.6 2.6zm624-.1l-2.1 2.7 3.3 3.6c7.3 8.1 7.4 19 .3 40.7-6.3 19.6-6.6 20.9-7.6 36.2-1.3 19.3-2.6 23-11.1 31.7l-6.9 7.1 2.8 2.7 2.8 2.7 6.6-6.8c9.9-10.1 12.2-15.9 13.3-33.7.9-15.6 1.4-18.1 6.1-32.7 9.4-28.8 9.6-39 1-51.5-3.9-5.7-5.7-6.3-8.5-2.7z"/></svg>