<?xml version="1.0" encoding="UTF-8"?>
<svg class="landing-page-graphs" width="447px" height="535px" viewBox="0 0 447 535" version="1.1" xmlns="http://www.w3.org/2000/svg" xmlns:xlink="http://www.w3.org/1999/xlink">
    <!-- Generator: Sketch 48.2 (47327) - http://www.bohemiancoding.com/sketch -->
    <title>Slice</title>
    <desc>Created with Sketch.</desc>
    <defs>
        <linearGradient x1="-5.05050505%" y1="68.258427%" x2="-5.05050505%" y2="0%" id="linearGradient-1">
            <stop stop-color="#808080" stop-opacity="0.25" offset="0%"></stop>
            <stop stop-color="#808080" stop-opacity="0.12" offset="54%"></stop>
            <stop stop-color="#808080" stop-opacity="0.1" offset="100%"></stop>
        </linearGradient>
        <linearGradient x1="-11.3636364%" y1="100%" x2="-11.3636364%" y2="0%" id="linearGradient-2">
            <stop stop-color="#808080" stop-opacity="0.25" offset="0%"></stop>
            <stop stop-color="#808080" stop-opacity="0.12" offset="54%"></stop>
            <stop stop-color="#808080" stop-opacity="0.1" offset="100%"></stop>
        </linearGradient>
        <linearGradient x1="1246.46465%" y1="576.264045%" x2="1246.46465%" y2="559.269663%" id="linearGradient-3">
            <stop stop-color="#808080" stop-opacity="0.25" offset="0%"></stop>
            <stop stop-color="#808080" stop-opacity="0.12" offset="54%"></stop>
            <stop stop-color="#808080" stop-opacity="0.1" offset="100%"></stop>
        </linearGradient>
        <linearGradient x1="22211.9978%" y1="37300%" x2="22211.9978%" y2="36200%" id="linearGradient-4">
            <stop stop-color="#808080" stop-opacity="0.25" offset="0%"></stop>
            <stop stop-color="#808080" stop-opacity="0.12" offset="54%"></stop>
            <stop stop-color="#808080" stop-opacity="0.1" offset="100%"></stop>
        </linearGradient>
        <linearGradient x1="1246.46465%" y1="662.780899%" x2="1246.46465%" y2="645.786517%" id="linearGradient-5">
            <stop stop-color="#808080" stop-opacity="0.25" offset="0%"></stop>
            <stop stop-color="#808080" stop-opacity="0.12" offset="54%"></stop>
            <stop stop-color="#808080" stop-opacity="0.1" offset="100%"></stop>
        </linearGradient>
        <linearGradient x1="22211.9978%" y1="42900%" x2="22211.9978%" y2="41800%" id="linearGradient-6">
            <stop stop-color="#808080" stop-opacity="0.25" offset="0%"></stop>
            <stop stop-color="#808080" stop-opacity="0.12" offset="54%"></stop>
            <stop stop-color="#808080" stop-opacity="0.1" offset="100%"></stop>
        </linearGradient>
        <linearGradient x1="1818.85522%" y1="662.780899%" x2="1818.85522%" y2="645.786517%" id="linearGradient-7">
            <stop stop-color="#808080" stop-opacity="0.25" offset="0%"></stop>
            <stop stop-color="#808080" stop-opacity="0.12" offset="54%"></stop>
            <stop stop-color="#808080" stop-opacity="0.1" offset="100%"></stop>
        </linearGradient>
        <linearGradient x1="32411.9968%" y1="42900%" x2="32411.9968%" y2="41800%" id="linearGradient-8">
            <stop stop-color="#808080" stop-opacity="0.25" offset="0%"></stop>
            <stop stop-color="#808080" stop-opacity="0.12" offset="54%"></stop>
            <stop stop-color="#808080" stop-opacity="0.1" offset="100%"></stop>
        </linearGradient>
        <linearGradient x1="668.929293%" y1="128.230337%" x2="668.929293%" y2="111.235955%" id="linearGradient-9">
            <stop stop-color="#808080" stop-opacity="0.25" offset="0%"></stop>
            <stop stop-color="#808080" stop-opacity="0.12" offset="54%"></stop>
            <stop stop-color="#808080" stop-opacity="0.1" offset="100%"></stop>
        </linearGradient>
        <linearGradient x1="33111.991%" y1="8300%" x2="33111.991%" y2="7200%" id="linearGradient-10">
            <stop stop-color="#808080" stop-opacity="0.25" offset="0%"></stop>
            <stop stop-color="#808080" stop-opacity="0.12" offset="54%"></stop>
            <stop stop-color="#808080" stop-opacity="0.1" offset="100%"></stop>
        </linearGradient>
        <linearGradient x1="668.929293%" y1="151.404494%" x2="668.929293%" y2="134.410112%" id="linearGradient-11">
            <stop stop-color="#808080" stop-opacity="0.25" offset="0%"></stop>
            <stop stop-color="#808080" stop-opacity="0.12" offset="54%"></stop>
            <stop stop-color="#808080" stop-opacity="0.1" offset="100%"></stop>
        </linearGradient>
        <linearGradient x1="33111.991%" y1="9800%" x2="33111.991%" y2="8700%" id="linearGradient-12">
            <stop stop-color="#808080" stop-opacity="0.25" offset="0%"></stop>
            <stop stop-color="#808080" stop-opacity="0.12" offset="54%"></stop>
            <stop stop-color="#808080" stop-opacity="0.1" offset="100%"></stop>
        </linearGradient>
        <linearGradient x1="668.929293%" y1="174.578652%" x2="668.929293%" y2="157.58427%" id="linearGradient-13">
            <stop stop-color="#808080" stop-opacity="0.25" offset="0%"></stop>
            <stop stop-color="#808080" stop-opacity="0.12" offset="54%"></stop>
            <stop stop-color="#808080" stop-opacity="0.1" offset="100%"></stop>
        </linearGradient>
        <linearGradient x1="33111.991%" y1="11300%" x2="33111.991%" y2="10200%" id="linearGradient-14">
            <stop stop-color="#808080" stop-opacity="0.25" offset="0%"></stop>
            <stop stop-color="#808080" stop-opacity="0.12" offset="54%"></stop>
            <stop stop-color="#808080" stop-opacity="0.1" offset="100%"></stop>
        </linearGradient>
        <linearGradient x1="668.929293%" y1="197.752809%" x2="668.929293%" y2="180.758427%" id="linearGradient-15">
            <stop stop-color="#808080" stop-opacity="0.25" offset="0%"></stop>
            <stop stop-color="#808080" stop-opacity="0.12" offset="54%"></stop>
            <stop stop-color="#808080" stop-opacity="0.1" offset="100%"></stop>
        </linearGradient>
        <linearGradient x1="33111.991%" y1="12800%" x2="33111.991%" y2="11700%" id="linearGradient-16">
            <stop stop-color="#808080" stop-opacity="0.25" offset="0%"></stop>
            <stop stop-color="#808080" stop-opacity="0.12" offset="54%"></stop>
            <stop stop-color="#808080" stop-opacity="0.1" offset="100%"></stop>
        </linearGradient>
        <linearGradient x1="5730.30303%" y1="6994.38202%" x2="5730.30303%" y2="3834.26966%" id="linearGradient-17">
            <stop stop-color="#808080" stop-opacity="0.25" offset="0%"></stop>
            <stop stop-color="#808080" stop-opacity="0.12" offset="54%"></stop>
            <stop stop-color="#808080" stop-opacity="0.1" offset="100%"></stop>
        </linearGradient>
        <linearGradient x1="13911.9891%" y1="33200%" x2="13911.9891%" y2="18200%" id="linearGradient-18">
            <stop stop-color="#808080" stop-opacity="0.25" offset="0%"></stop>
            <stop stop-color="#808080" stop-opacity="0.12" offset="54%"></stop>
            <stop stop-color="#808080" stop-opacity="0.1" offset="100%"></stop>
        </linearGradient>
        <linearGradient x1="12785.2974%" y1="9292.94944%" x2="12785.2974%" y2="6048.00562%" id="linearGradient-19">
            <stop stop-color="#808080" stop-opacity="0.25" offset="0%"></stop>
            <stop stop-color="#808080" stop-opacity="0.12" offset="54%"></stop>
            <stop stop-color="#808080" stop-opacity="0.1" offset="100%"></stop>
        </linearGradient>
        <linearGradient x1="30788.378%" y1="43530.1347%" x2="30788.378%" y2="28330.1336%" id="linearGradient-20">
            <stop stop-color="#808080" stop-opacity="0.25" offset="0%"></stop>
            <stop stop-color="#808080" stop-opacity="0.12" offset="54%"></stop>
            <stop stop-color="#808080" stop-opacity="0.1" offset="100%"></stop>
        </linearGradient>
        <linearGradient x1="683.781145%" y1="631.070225%" x2="683.781145%" y2="603.542135%" id="linearGradient-21">
            <stop stop-color="#808080" stop-opacity="0.25" offset="0%"></stop>
            <stop stop-color="#808080" stop-opacity="0.12" offset="54%"></stop>
            <stop stop-color="#808080" stop-opacity="0.1" offset="100%"></stop>
        </linearGradient>
        <linearGradient x1="43517.7479%" y1="32094.423%" x2="43517.7479%" y2="30694.4232%" id="linearGradient-22">
            <stop stop-color="#808080" stop-opacity="0.25" offset="0%"></stop>
            <stop stop-color="#808080" stop-opacity="0.12" offset="54%"></stop>
            <stop stop-color="#808080" stop-opacity="0.1" offset="100%"></stop>
        </linearGradient>
        <linearGradient x1="749.714927%" y1="622.671348%" x2="749.714927%" y2="595.143258%" id="linearGradient-23">
            <stop stop-color="#808080" stop-opacity="0.25" offset="0%"></stop>
            <stop stop-color="#808080" stop-opacity="0.12" offset="54%"></stop>
            <stop stop-color="#808080" stop-opacity="0.1" offset="100%"></stop>
        </linearGradient>
        <linearGradient x1="47714.0332%" y1="31667.2609%" x2="47714.0332%" y2="30267.262%" id="linearGradient-24">
            <stop stop-color="#808080" stop-opacity="0.25" offset="0%"></stop>
            <stop stop-color="#808080" stop-opacity="0.12" offset="54%"></stop>
            <stop stop-color="#808080" stop-opacity="0.1" offset="100%"></stop>
        </linearGradient>
        <linearGradient x1="24.2847363%" y1="16.0519663%" x2="24.2847363%" y2="16.0418712%" id="linearGradient-25">
            <stop stop-color="#808080" stop-opacity="0.25" offset="0%"></stop>
            <stop stop-color="#808080" stop-opacity="0.12" offset="54%"></stop>
            <stop stop-color="#808080" stop-opacity="0.1" offset="100%"></stop>
        </linearGradient>
        <linearGradient x1="21637.699%" y1="11428.9997%" x2="21637.699%" y2="11421.812%" id="linearGradient-26">
            <stop stop-color="#808080" stop-opacity="0.25" offset="0%"></stop>
            <stop stop-color="#808080" stop-opacity="0.12" offset="54%"></stop>
            <stop stop-color="#808080" stop-opacity="0.1" offset="100%"></stop>
        </linearGradient>
        <linearGradient x1="3693.40067%" y1="14105.8989%" x2="3693.40067%" y2="9912.38764%" id="linearGradient-27">
            <stop stop-color="#808080" stop-opacity="0.25" offset="0%"></stop>
            <stop stop-color="#808080" stop-opacity="0.12" offset="54%"></stop>
            <stop stop-color="#808080" stop-opacity="0.1" offset="100%"></stop>
        </linearGradient>
        <linearGradient x1="43122.5001%" y1="58128.9304%" x2="43122.5001%" y2="40847.9102%" id="linearGradient-28">
            <stop stop-color="#808080" stop-opacity="0.25" offset="0%"></stop>
            <stop stop-color="#808080" stop-opacity="0.12" offset="54%"></stop>
            <stop stop-color="#808080" stop-opacity="0.1" offset="100%"></stop>
        </linearGradient>
        <linearGradient x1="10.2550056%" y1="18.5669944%" x2="10.2550056%" y2="18.553398%" id="linearGradient-29">
            <stop stop-color="#808080" stop-opacity="0.25" offset="0%"></stop>
            <stop stop-color="#808080" stop-opacity="0.12" offset="54%"></stop>
            <stop stop-color="#808080" stop-opacity="0.1" offset="100%"></stop>
        </linearGradient>
        <linearGradient x1="9137.20986%" y1="13219.7007%" x2="9137.20986%" y2="13210.0201%" id="linearGradient-30">
            <stop stop-color="#808080" stop-opacity="0.25" offset="0%"></stop>
            <stop stop-color="#808080" stop-opacity="0.12" offset="54%"></stop>
            <stop stop-color="#808080" stop-opacity="0.1" offset="100%"></stop>
        </linearGradient>
        <linearGradient x1="1650.89787%" y1="17625.2809%" x2="1650.89787%" y2="11867.9073%" id="linearGradient-31">
            <stop stop-color="#808080" stop-opacity="0.25" offset="0%"></stop>
            <stop stop-color="#808080" stop-opacity="0.12" offset="54%"></stop>
            <stop stop-color="#808080" stop-opacity="0.1" offset="100%"></stop>
        </linearGradient>
        <linearGradient x1="12699.4985%" y1="61982.9927%" x2="12699.4985%" y2="41735.9823%" id="linearGradient-32">
            <stop stop-color="#808080" stop-opacity="0.25" offset="0%"></stop>
            <stop stop-color="#808080" stop-opacity="0.12" offset="54%"></stop>
            <stop stop-color="#808080" stop-opacity="0.1" offset="100%"></stop>
        </linearGradient>
    </defs>
    <g id="Page-1" stroke="none" stroke-width="1" fill="none" fill-rule="evenodd">
        <g id="landing-page-graphs-contrast-adjusted" transform="translate(1.000000, 0.000000)" fill-rule="nonzero">
            <g id="landing-page-graphs">
                <g id="Vector" transform="translate(308.000000, 489.000000)" fill="#F2F2F2">
                    <g id="path0_fill-link" transform="translate(0.000000, 0.050000)">
                        <path d="M67,34 C104.003,34 134,26.3888 134,17 C134,7.61115 104.003,-1.2207e-05 67,-1.2207e-05 C29.9969,-1.2207e-05 0,7.61115 0,17 C0,26.3888 29.9969,34 67,34 Z" id="path0_fill"></path>
                    </g>
                </g>
                <g id="Vector" transform="translate(0.000000, 497.000000)" fill="#F2F2F2">
                    <g id="path0_fill-link" transform="translate(0.000000, 0.050000)">
                        <path d="M67,34 C104.003,34 134,26.3888 134,17 C134,7.61115 104.003,-1.2207e-05 67,-1.2207e-05 C29.9969,-1.2207e-05 0,7.61115 0,17 C0,26.3888 29.9969,34 67,34 Z" id="path0_fill"></path>
                    </g>
                </g>
                <g id="Vector" transform="translate(22.000000, 4.000000)" fill="#F5F5F5">
                    <g id="path1_fill-link" transform="translate(0.620000, 0.000000)">
                        <polygon id="path1_fill" points="383 0 0 0 0 14.5 383 14.5"></polygon>
                    </g>
                </g>
                <g id="Vector" transform="translate(15.000000, 0.000000)" fill="url(#linearGradient-2)">
                    <g id="path2_fill-link" transform="translate(0.620000, 0.000000)">
                        <polygon id="path2_fill" points="396 0 0 0 0 486 396 486"></polygon>
                    </g>
                </g>
                <g id="Vector" transform="translate(22.000000, 18.000000)" fill="#FFFFFF">
                    <g id="path3_fill-link" transform="translate(0.620000, 0.500000)">
                        <polygon id="path3_fill" points="383 0 0 0 0 459.5 383 459.5"></polygon>
                    </g>
                </g>
                <g id="Vector" transform="translate(27.000000, 8.000000)" fill="#FF5252">
                    <g id="path4_fill-link">
                        <path d="M3.5,7 C5.433,7 7,5.433 7,3.5 C7,1.567 5.433,0 3.5,0 C1.567,0 0,1.567 0,3.5 C0,5.433 1.567,7 3.5,7 Z" id="path4_fill"></path>
                    </g>
                </g>
                <g id="Vector" transform="translate(36.000000, 8.000000)" fill="#FFFF00">
                    <g id="path5_fill-link" transform="translate(0.620000, 0.000000)">
                        <path d="M3.5,7 C5.433,7 7,5.433 7,3.5 C7,1.567 5.433,0 3.5,0 C1.567,0 0,1.567 0,3.5 C0,5.433 1.567,7 3.5,7 Z" id="path5_fill"></path>
                    </g>
                </g>
                <g id="Vector" transform="translate(46.000000, 8.000000)" fill="#69F0AE">
                    <g id="path4_fill-link" transform="translate(0.250000, 0.000000)">
                        <path d="M3.5,7 C5.433,7 7,5.433 7,3.5 C7,1.567 5.433,0 3.5,0 C1.567,0 0,1.567 0,3.5 C0,5.433 1.567,7 3.5,7 Z" id="path4_fill"></path>
                    </g>
                </g>
                <g id="Group" opacity="0.2" transform="translate(33.000000, 36.000000)" fill="#11D074">
                    <g id="Vector">
                        <g id="path6_fill-link" transform="translate(0.620000, 0.000000)">
                            <polygon id="path6_fill" points="149 0 0 0 0 9 149 9"></polygon>
                        </g>
                    </g>
                </g>
                <g id="Vector" transform="translate(139.000000, 73.000000)" fill="#F5F5F5">
                    <g id="path7_fill-link" transform="translate(0.620000, 0.000000)">
                        <polygon id="path7_fill" points="149 0 -4.88281e-06 0 -4.88281e-06 9 149 9"></polygon>
                    </g>
                </g>
                <g id="Vector" opacity="0.5" transform="translate(33.000000, 363.000000)" fill="#11D074">
                    <g id="path6_fill-link" transform="translate(0.620000, 0.000000)">
                        <polygon id="path6_fill" points="149 0 0 0 0 9 149 9"></polygon>
                    </g>
                </g>
                <g id="Vector" transform="translate(202.000000, 362.000000)" fill="url(#linearGradient-4)">
                    <g id="path8_fill-link" transform="translate(0.620000, 0.000000)">
                        <polygon id="path8_fill" points="50 0 -4.88281e-06 0 -4.88281e-06 11 50 11"></polygon>
                    </g>
                </g>
                <g id="Vector" transform="translate(202.000000, 418.000000)" fill="url(#linearGradient-6)">
                    <g id="path8_fill-link" transform="translate(0.620000, 0.000000)">
                        <polygon id="path8_fill" points="50 0 -4.88281e-06 0 -4.88281e-06 11 50 11"></polygon>
                    </g>
                </g>
                <g id="Vector" transform="translate(304.000000, 418.000000)" fill="url(#linearGradient-8)">
                    <g id="path8_fill-link" transform="translate(0.620000, 0.000000)">
                        <polygon id="path8_fill" points="50 0 -4.88281e-06 0 -4.88281e-06 11 50 11"></polygon>
                    </g>
                </g>
                <g id="Vector" transform="translate(204.000000, 363.000000)" fill="#11D074">
                    <g id="path9_fill-link" transform="translate(0.620000, 0.000000)">
                        <polygon id="path9_fill" points="47 0 -4.88281e-06 0 -4.88281e-06 9 47 9"></polygon>
                    </g>
                </g>
                <g id="Vector" transform="translate(204.000000, 419.000000)" fill="#11D074">
                    <g id="path9_fill-link" transform="translate(0.620000, 0.000000)">
                        <polygon id="path9_fill" points="47 0 -4.88281e-06 0 -4.88281e-06 9 47 9"></polygon>
                    </g>
                </g>
                <g id="Vector" transform="translate(305.000000, 419.000000)" fill="#11D074">
                    <g id="path9_fill-link" transform="translate(0.620000, 0.000000)">
                        <polygon id="path9_fill" points="47 0 -4.88281e-06 0 -4.88281e-06 9 47 9"></polygon>
                    </g>
                </g>
                <g id="Vector" transform="translate(33.000000, 391.000000)" fill="#F5F5F5">
                    <g id="path6_fill-link" transform="translate(0.620000, 0.000000)">
                        <polygon id="path6_fill" points="149 0 0 0 0 9 149 9"></polygon>
                    </g>
                </g>
                <g id="Vector" opacity="0.5" transform="translate(204.000000, 391.000000)" fill="#11D074">
                    <g id="path7_fill-link" transform="translate(0.620000, 0.000000)">
                        <polygon id="path7_fill" points="149 0 -4.88281e-06 0 -4.88281e-06 9 149 9"></polygon>
                    </g>
                </g>
                <g id="Vector" transform="translate(204.000000, 447.000000)" fill="#F5F5F5">
                    <g id="path7_fill-link" transform="translate(0.620000, 0.000000)">
                        <polygon id="path7_fill" points="149 0 -4.88281e-06 0 -4.88281e-06 9 149 9"></polygon>
                    </g>
                </g>
                <g id="Vector" opacity="0.5" transform="translate(33.000000, 419.000000)" fill="#11D074">
                    <g id="path6_fill-link" transform="translate(0.620000, 0.000000)">
                        <polygon id="path6_fill" points="149 0 0 0 0 9 149 9"></polygon>
                    </g>
                </g>
                <g id="Vector" transform="translate(33.000000, 447.000000)" fill="#F5F5F5">
                    <g id="path6_fill-link" transform="translate(0.620000, 0.000000)">
                        <polygon id="path6_fill" points="149 0 0 0 0 9 149 9"></polygon>
                    </g>
                </g>
                <g id="Vector" transform="translate(139.000000, 88.000000)" fill="#F5F5F5">
                    <g id="path10_fill-link" transform="translate(0.620000, 0.000000)">
                        <polygon id="path10_fill" points="84 0 -4.88281e-06 0 -4.88281e-06 9 84 9"></polygon>
                    </g>
                </g>
                <g id="Vector" transform="translate(238.000000, 88.000000)" fill="#F5F5F5">
                    <g id="path11_fill-link" transform="translate(0.620000, 0.000000)">
                        <polygon id="path11_fill" points="29 0 -4.88281e-06 0 -4.88281e-06 9 29 9"></polygon>
                    </g>
                </g>
                <g id="Vector" transform="translate(139.000000, 118.000000)" fill="#F5F5F5">
                    <g id="path10_fill-link" transform="translate(0.620000, 0.000000)">
                        <polygon id="path10_fill" points="84 0 -4.88281e-06 0 -4.88281e-06 9 84 9"></polygon>
                    </g>
                </g>
                <g id="Vector" transform="translate(238.000000, 118.000000)" fill="#F5F5F5">
                    <g id="path11_fill-link" transform="translate(0.620000, 0.000000)">
                        <polygon id="path11_fill" points="29 0 -4.88281e-06 0 -4.88281e-06 9 29 9"></polygon>
                    </g>
                </g>
                <g id="Vector" transform="translate(139.000000, 103.000000)" fill="#F5F5F5">
                    <g id="path7_fill-link" transform="translate(0.620000, 0.000000)">
                        <polygon id="path7_fill" points="149 0 -4.88281e-06 0 -4.88281e-06 9 149 9"></polygon>
                    </g>
                </g>
                <g id="Group" opacity="0.2" transform="translate(243.000000, 36.000000)" fill="#11D074">
                    <g id="Vector">
                        <g id="path7_fill-link" transform="translate(0.620000, 0.000000)">
                            <polygon id="path7_fill" points="149 0 -4.88281e-06 0 -4.88281e-06 9 149 9"></polygon>
                        </g>
                    </g>
                </g>
                <g id="Vector" transform="translate(327.000000, 72.000000)" fill="url(#linearGradient-10)">
                    <g id="path12_fill-link" transform="translate(0.620000, 0.000000)">
                        <polygon id="path12_fill" points="18 0 -4.88281e-06 0 -4.88281e-06 11 18 11"></polygon>
                    </g>
                </g>
                <g id="Vector" transform="translate(327.000000, 87.000000)" fill="url(#linearGradient-12)">
                    <g id="path12_fill-link" transform="translate(0.620000, 0.000000)">
                        <polygon id="path12_fill" points="18 0 -4.88281e-06 0 -4.88281e-06 11 18 11"></polygon>
                    </g>
                </g>
                <g id="Vector" transform="translate(327.000000, 102.000000)" fill="url(#linearGradient-14)">
                    <g id="path12_fill-link" transform="translate(0.620000, 0.000000)">
                        <polygon id="path12_fill" points="18 0 -4.88281e-06 0 -4.88281e-06 11 18 11"></polygon>
                    </g>
                </g>
                <g id="Vector" transform="translate(328.000000, 73.000000)" fill="#FF5252">
                    <g id="path13_fill-link" transform="translate(0.620000, 0.000000)">
                        <polygon id="path13_fill" points="16 0 -4.88281e-06 0 -4.88281e-06 9 16 9"></polygon>
                    </g>
                </g>
                <g id="Vector" transform="translate(328.000000, 88.000000)" fill="#FF9800">
                    <g id="path13_fill-link" transform="translate(0.620000, 0.000000)">
                        <polygon id="path13_fill" points="16 0 -4.88281e-06 0 -4.88281e-06 9 16 9"></polygon>
                    </g>
                </g>
                <g id="Vector" transform="translate(328.000000, 103.000000)" fill="#69F0AE">
                    <g id="path13_fill-link" transform="translate(0.620000, 0.000000)">
                        <polygon id="path13_fill" points="16 0 -4.88281e-06 0 -4.88281e-06 9 16 9"></polygon>
                    </g>
                </g>
                <g id="Vector" transform="translate(327.000000, 117.000000)" fill="url(#linearGradient-16)">
                    <g id="path12_fill-link" transform="translate(0.620000, 0.000000)">
                        <polygon id="path12_fill" points="18 0 -4.88281e-06 0 -4.88281e-06 11 18 11"></polygon>
                    </g>
                </g>
                <g id="Vector" transform="translate(328.000000, 118.000000)" fill="#11D074">
                    <g id="path13_fill-link" transform="translate(0.620000, 0.000000)">
                        <polygon id="path13_fill" points="16 0 -4.88281e-06 0 -4.88281e-06 9 16 9"></polygon>
                    </g>
                </g>
                <g id="Vector" transform="translate(30.000000, 182.000000)" fill="url(#linearGradient-18)">
                    <g id="path14_fill-link" transform="translate(0.620000, 0.000000)">
                        <polygon id="path14_fill" points="367 0 0 0 0 150 367 150"></polygon>
                    </g>
                </g>
                <g id="Vector" opacity="0.5" transform="translate(33.000000, 185.000000)" fill="#11D074">
                    <g id="path15_fill-link" transform="translate(0.620000, 0.000000)">
                        <polygon id="path15_fill" points="359 0 0 0 0 142 359 142"></polygon>
                    </g>
                </g>
                <g id="Vector" opacity="0.5" transform="translate(33.000000, 185.000000)" fill="#FFFFFF">
                    <g id="path16_fill-link" transform="translate(0.620000, 0.000000)">
                        <polygon id="path16_fill" points="11 11 359 11 359 0 -1.06812e-06 0 -1.06812e-06 142 11 142"></polygon>
                    </g>
                </g>
                <g id="Vector" transform="translate(32.000000, 172.000000)" fill="url(#linearGradient-20)">
                    <g id="path17_fill-link" transform="translate(191.604618, 93.030153) rotate(-5.200003) translate(-191.604618, -93.030153) translate(6.604691, 17.030183)">
                        <polygon id="path17_fill" points="369.999854 1.09862957e-05 -4.88280807e-06 1.09862957e-05 -4.88280807e-06 151.99994 369.999854 151.99994"></polygon>
                    </g>
                </g>
                <g id="Vector" transform="translate(38.000000, 177.000000)" fill="#FFFFFF">
                    <g id="path18_fill-link" transform="translate(186.007093, 86.977212) rotate(-5.200003) translate(-186.007093, -86.977212) translate(6.507164, 15.977240)">
                        <polygon id="path18_fill" points="358.999858 -7.32421711e-06 0 -7.32421711e-06 0 141.999944 358.999858 141.999944"></polygon>
                    </g>
                </g>
                <g id="Vector" opacity="0.5" transform="translate(59.000000, 206.000000)" fill="#11D074">
                    <g id="path19_fill-link" transform="translate(0.300000, 0.263000)">
                        <path d="M6.2,119.327 L3.05176e-06,40.5571 C3.05176e-06,40.5571 32,6.55713 96.6,31.7571 C161.2,56.9571 191.66,39.1671 202.16,22.1471 C212.66,5.12714 267.16,-13.8529 284.82,14.6171 C302.48,43.0871 323.66,11.0771 323.66,11.0771 L330.82,89.7471 L6.2,119.327 Z" id="path19_fill"></path>
                    </g>
                </g>
                <g id="Vector" transform="translate(97.000000, 228.000000)" fill="#11D074">
                    <g id="path20_stroke-link" transform="translate(0.030000, 0.660000)">
                        <polygon id="path20_stroke" points="0.502025 1.0449713 1.0420259 7.02497 2.03797 6.93503 1.497973 0.955036"></polygon>
                    </g>
                </g>
                <g id="Vector" transform="translate(98.000000, 246.000000)" fill="#11D074">
                    <g id="path21_stroke-link" transform="translate(0.620000, 0.100000)">
                        <path d="M0.502061,1.0453309 L0.9803945,6.30033 L1.976277,6.20968 L1.497944,0.9546813 L0.502061,1.0453309 Z M1.937061,16.8103 L2.89373,27.3203 L3.88961,27.2297 L2.93294,16.7197 L1.937061,16.8103 Z M3.85039,37.8303 L4.80706,48.3403 L5.80294,48.2497 L4.84628,37.7397 L3.85039,37.8303 Z M5.76373,58.8503 L6.24206,64.1053 L7.23794,64.0147 L6.75961,58.7597 L5.76373,58.8503 Z" id="path21_stroke"></path>
                    </g>
                </g>
                <g id="Vector" transform="translate(104.000000, 314.000000)" fill="#11D074">
                    <g id="path22_stroke-link" transform="translate(0.880000, 0.890000)">
                        <polygon id="path22_stroke" points="0.502106 1.0458845 1.0521088 7.01586 2.04789 6.92412 1.497889 0.9541448"></polygon>
                    </g>
                </g>
                <g id="Vector" transform="translate(158.000000, 238.000000)" fill="#11D074">
                    <g id="path23_stroke-link" transform="translate(0.520000, 0.420000)">
                        <polygon id="path23_stroke" points="0.502113 1.0458678 1.0521158 7.01587 2.0479 6.92413 1.497896 0.9541285"></polygon>
                    </g>
                </g>
                <g id="Vector" transform="translate(160.000000, 257.000000)" fill="#11D074">
                    <g id="path24_stroke-link" transform="translate(0.250000, 0.400000)">
                        <path d="M0.502066,1.0453998 L1.0208152,6.73415 L2.01668,6.64334 L1.497934,0.954588 L0.502066,1.0453998 Z M2.05831,18.1117 L3.09581,29.4892 L4.09168,29.3983 L3.05418,18.0208 L2.05831,18.1117 Z M4.13331,40.8667 L4.65206,46.5554 L5.64793,46.4646 L5.12918,40.7758 L4.13331,40.8667 Z" id="path24_stroke"></path>
                    </g>
                </g>
                <g id="Vector" transform="translate(164.000000, 309.000000)" fill="#11D074">
                    <g id="path25_stroke-link" transform="translate(0.990000, 0.410000)">
                        <polygon id="path25_stroke" points="0.502032 1.0449706 1.0420249 7.02498 2.03797 6.93505 1.497979 0.9550368"></polygon>
                    </g>
                </g>
                <g id="Vector" transform="translate(221.000000, 249.000000)" fill="#11D074">
                    <g id="path26_stroke-link" transform="translate(0.260000, 0.100000)">
                        <polygon id="path26_stroke" points="0.502501 1.050006 1.102507 7.02001 2.09749 6.92001 1.497488 0.9500062"></polygon>
                    </g>
                </g>
                <g id="Vector" transform="translate(222.000000, 264.000000)" fill="#11D074">
                    <g id="path27_stroke-link" transform="translate(0.830000, 0.820000)">
                        <path d="M0.50244,1.0493258 L0.9249407,5.31183 L1.920064,5.21319 L1.497564,0.9506888 L0.50244,1.0493258 Z M1.769942,13.8368 L2.61494,22.3618 L3.61007,22.2632 L2.76507,13.7382 L1.769942,13.8368 Z M3.45994,30.8868 L3.88245,35.1493 L4.87757,35.0507 L4.45507,30.7882 L3.45994,30.8868 Z" id="path27_stroke"></path>
                    </g>
                </g>
                <g id="Vector" transform="translate(226.000000, 303.000000)" fill="#11D074">
                    <g id="path28_stroke-link" transform="translate(0.700000, 0.790000)">
                        <polygon id="path28_stroke" points="0.502413 1.0491011 1.0924092 7.02908 2.08758 6.9309 1.497581 0.9509159"></polygon>
                    </g>
                </g>
                <g id="Vector" transform="translate(277.000000, 213.000000)" fill="#11D074">
                    <g id="path29_stroke-link" transform="translate(0.650000, 0.840000)">
                        <polygon id="path29_stroke" points="0.50202 1.0449645 1.0420287 7.02498 2.03798 6.93504 1.497968 0.9550282"></polygon>
                    </g>
                </g>
                <g id="Vector" transform="translate(279.000000, 231.000000)" fill="#11D074">
                    <g id="path30_stroke-link" transform="translate(0.210000, 0.050000)">
                        <path d="M0.502054,1.0453727 L0.9712212,6.19454 L1.967096,6.1038 L1.497929,0.9546334 L0.502054,1.0453727 Z M1.909555,16.4929 L2.84789,26.7912 L3.84376,26.7005 L2.90543,16.4021 L1.909555,16.4929 Z M3.78622,37.0895 L4.72456,47.3879 L5.72043,47.2971 L4.7821,36.9988 L3.78622,37.0895 Z M5.66289,57.6862 L6.13206,62.8354 L7.12793,62.7446 L6.65877,57.5955 L5.66289,57.6862 Z" id="path30_stroke"></path>
                    </g>
                </g>
                <g id="Vector" transform="translate(285.000000, 298.000000)" fill="#11D074">
                    <g id="path31_stroke-link" transform="translate(0.350000, 0.450000)">
                        <polygon id="path31_stroke" points="0.502107 1.0458047 1.0520952 7.02579 2.04789 6.9342 1.497905 0.9542197"></polygon>
                    </g>
                </g>
                <g id="Vector" transform="translate(318.000000, 205.000000)" fill="#11D074">
                    <g id="path32_stroke-link" transform="translate(0.350000, 0.590000)">
                        <polygon id="path32_stroke" points="0.502039 1.0450393 1.0420476 7.01504 2.03798 6.92495 1.497973 0.9549534"></polygon>
                    </g>
                </g>
                <g id="Vector" transform="translate(319.000000, 223.000000)" fill="#11D074">
                    <g id="path33_stroke-link" transform="translate(0.970000, 0.440000)">
                        <path d="M0.502062,1.0453529 L0.99789648,6.48952 L1.993775,6.39882 L1.49794,0.954652 L0.502062,1.0453529 Z M1.989565,17.3778 L2.98123,28.2662 L3.97711,28.1755 L2.98544,17.2871 L1.989565,17.3778 Z M3.9729,39.1545 L4.96457,50.0428 L5.96045,49.9521 L4.96878,39.0638 L3.9729,39.1545 Z M5.95624,60.9312 L6.45207,66.3753 L7.44795,66.2846 L6.95212,60.8405 L5.95624,60.9312 Z" id="path33_stroke"></path>
                    </g>
                </g>
                <g id="Vector" transform="translate(326.000000, 294.000000)" fill="#11D074">
                    <g id="path34_stroke-link" transform="translate(0.460000, 0.710000)">
                        <polygon id="path34_stroke" points="0.5021 1.0458624 1.0521184 7.01586 2.0479 6.92412 1.497883 0.9541205"></polygon>
                    </g>
                </g>
                <g id="Vector" transform="translate(92.000000, 223.000000)" fill="#FF9800">
                    <g id="path35_fill-link" transform="translate(5.841583, 6.275257) rotate(-5.200003) translate(-5.841583, -6.275257) translate(0.841585, 1.275259)">
                        <path d="M4.99999802,9.99999605 C7.76141693,9.99999605 9.99998605,7.76142693 9.99998605,5.00000802 C9.99998605,2.23858912 7.76141693,1.09862957e-05 4.99999802,1.09862957e-05 C2.23857912,1.09862957e-05 0,2.23858912 0,5.00000802 C0,7.76142693 2.23857912,9.99999605 4.99999802,9.99999605 Z" id="path35_fill"></path>
                    </g>
                </g>
                <g id="Vector" transform="translate(153.000000, 234.000000)" fill="#FF5252">
                    <g id="path36_fill-link" transform="translate(6.041583, 5.775257) rotate(-5.200003) translate(-6.041583, -5.775257) translate(1.041585, 0.775259)">
                        <path d="M4.99999802,9.99999605 C7.76141693,9.99999605 9.99999605,7.76142693 9.99999605,5.00000802 C9.99999605,2.23858912 7.76141693,1.09862957e-05 4.99999802,1.09862957e-05 C2.23856912,1.09862957e-05 -2.44140904e-06,2.23858912 -2.44140904e-06,5.00000802 C-2.44140904e-06,7.76142693 2.23856912,9.99999605 4.99999802,9.99999605 Z" id="path36_fill"></path>
                    </g>
                </g>
                <g id="Vector" transform="translate(216.000000, 244.000000)" fill="#69F0AE">
                    <g id="path37_fill-link" transform="translate(6.245583, 6.085257) rotate(-5.200003) translate(-6.245583, -6.085257) translate(1.245585, 1.085259)">
                        <path d="M5.00000802,9.99999605 C7.76142693,9.99999605 9.99999605,7.76142693 9.99999605,5.00000802 C9.99999605,2.23857912 7.76142693,8.54491662e-06 5.00000802,8.54491662e-06 C2.23858912,8.54491662e-06 9.76561614e-06,2.23857912 9.76561614e-06,5.00000802 C9.76561614e-06,7.76142693 2.23858912,9.99999605 5.00000802,9.99999605 Z" id="path37_fill"></path>
                    </g>
                </g>
                <g id="Vector" transform="translate(270.000000, 207.000000)" fill="url(#linearGradient-22)">
                    <g id="path38_fill-link" transform="translate(8.282616, 7.860760) rotate(-5.200003) translate(-8.282616, -7.860760) translate(1.282619, 0.860763)">
                        <path d="M6.9999839,13.9999976 C10.8659905,13.9999976 13.9999878,10.8659981 13.9999878,6.99999878 C13.9999878,3.13399945 10.8659905,-2.44140904e-06 6.9999839,-2.44140904e-06 C3.13398727,-2.44140904e-06 -1.22069952e-05,3.13399945 -1.22069952e-05,6.99999878 C-1.22069952e-05,10.8659981 3.13398727,13.9999976 6.9999839,13.9999976 Z" id="path38_fill"></path>
                    </g>
                </g>
                <g id="Vector" transform="translate(312.000000, 199.000000)" fill="url(#linearGradient-24)">
                    <g id="path39_fill-link" transform="translate(7.745616, 8.075760) rotate(-5.200003) translate(-7.745616, -8.075760) translate(0.745619, 1.075763)">
                        <path d="M7.00000723,13.9999945 C10.8659957,13.9999945 13.9999945,10.8659957 13.9999945,6.99998723 C13.9999945,3.13399876 10.8659957,-1.09862957e-05 7.00000723,-1.09862957e-05 C3.13401876,-1.09862957e-05 9.76561614e-06,3.13399876 9.76561614e-06,6.99998723 C9.76561614e-06,10.8659957 3.13401876,13.9999945 7.00000723,13.9999945 Z" id="path39_fill"></path>
                    </g>
                </g>
                <g id="Vector" transform="translate(272.000000, 209.000000)" fill="#11D074">
                    <g id="path40_fill-link" transform="translate(6.282583, 5.861257) rotate(-5.200003) translate(-6.282583, -5.861257) translate(1.282585, 0.861259)">
                        <path d="M4.9999889,9.99999756 C7.76140829,9.99999756 9.99998779,7.76141811 9.99998779,4.99999878 C9.99998779,2.23856945 7.76140829,-2.44140904e-06 4.9999889,-2.44140904e-06 C2.23855951,-2.44140904e-06 -1.22069952e-05,2.23856945 -1.22069952e-05,4.99999878 C-1.22069952e-05,7.76141811 2.23855951,9.99999756 4.9999889,9.99999756 Z" id="path40_fill"></path>
                    </g>
                </g>
                <g id="Vector" transform="translate(314.000000, 201.000000)" fill="#11D074">
                    <g id="path41_fill-link" transform="translate(5.745583, 6.075257) rotate(-5.200003) translate(-5.745583, -6.075257) translate(0.745585, 1.075259)">
                        <path d="M5.00000802,9.99998605 C7.76142693,9.99998605 9.99999605,7.76140693 9.99999605,4.99998802 C9.99999605,2.23856912 7.76142693,-1.09862957e-05 5.00000802,-1.09862957e-05 C2.23858912,-1.09862957e-05 9.76561614e-06,2.23856912 9.76561614e-06,4.99998802 C9.76561614e-06,7.76140693 2.23858912,9.99998605 5.00000802,9.99998605 Z" id="path41_fill"></path>
                    </g>
                </g>
                <g id="Vector" transform="translate(377.000000, 213.000000)" fill="#69F0AE">
                    <g id="path42_fill-link" transform="translate(6.119583, 6.380257) rotate(-5.200003) translate(-6.119583, -6.380257) translate(1.119585, 1.380259)">
                        <path d="M5.00000802,9.99999605 C7.76143693,9.99999605 9.99999605,7.76142693 9.99999605,5.00000802 C9.99999605,2.23857912 7.76143693,7.32421711e-06 5.00000802,7.32421711e-06 C2.23858912,7.32421711e-06 1.46483942e-05,2.23857912 1.46483942e-05,5.00000802 C1.46483942e-05,7.76142693 2.23858912,9.99999605 5.00000802,9.99999605 Z" id="path42_fill"></path>
                    </g>
                </g>
                <g id="Group" opacity="0.2" transform="translate(393.000000, 318.000000)" fill="url(#linearGradient-26)">
                    <g id="Vector">
                        <g id="path43_fill-link" transform="translate(0.260000, 0.673500)">
                            <path d="M9.76562e-06,0.0464631 L0.0700171,0.276444 C0.840017,-0.153556 9.76562e-06,0.0464631 9.76562e-06,0.0464631 Z" id="path43_fill"></path>
                        </g>
                    </g>
                </g>
                <g id="Group" opacity="0.2" transform="translate(324.000000, 314.000000)" fill="url(#linearGradient-28)">
                    <g id="Vector">
                        <g id="path44_fill-link" transform="translate(0.947000, 0.002100)">
                            <path d="M60.0333,172.698 L76.3133,170.068 L74.0734,160.068 L74.0734,159.928 L74.0134,159.928 L62.4733,106.928 L62.4733,68.2779 C62.472,67.7869 62.4453,67.2962 62.3934,66.8079 C79.6334,43.9479 69.3934,8.07789 68.3934,4.94789 C68.2134,5.03789 67.9433,5.15791 67.5633,5.30791 C67.4385,3.90834 67.1738,2.52477 66.7733,1.1779 C66.7733,1.1779 61.7733,-2.00209 59.0433,2.08791 C56.6633,5.65791 58.4333,7.83789 58.9233,8.34789 L58.5834,8.4579 C59.3495,9.66202 59.8853,10.998 60.1633,12.3979 C60.0054,12.0531 59.8251,11.719 59.6233,11.3979 C58.9933,11.2879 58.6233,11.1879 58.6233,11.1879 L58.5033,11.0779 L58.1633,11.1879 C59.8933,13.7179 60.5033,18.1879 60.4233,23.4879 C59.8259,22.6606 59.1566,21.8876 58.4233,21.1779 C55.2622,18.1585 51.0931,16.4195 46.7233,16.2979 L45.8934,16.2979 C45.44,16.2979 44.9866,16.3279 44.5333,16.3879 L44.1933,16.3879 L43.6233,16.4679 L42.9733,16.5879 L42.5033,16.6879 L41.6933,16.9079 L41.3934,16.9979 C41.0534,17.1079 40.7234,17.2179 40.3934,17.3479 C39.2971,17.8813 38.1473,18.297 36.9633,18.5879 C36.8033,18.5879 36.6433,18.5879 36.4733,18.6379 C35.1366,18.7315 33.8094,18.3528 32.7233,17.5679 L32.3633,17.2879 C32.2271,17.1712 32.097,17.0478 31.9733,16.9179 C31.8375,17.2644 31.7795,17.6365 31.8033,18.0079 C31.8783,18.8894 32.2989,19.7054 32.9733,20.2779 C33.1627,20.4419 33.3708,20.5829 33.5933,20.6979 C33.9221,20.8702 34.283,20.9724 34.6533,20.9979 L35.0333,20.9979 L34.9433,20.9979 C34.7133,21.1079 34.4833,21.2079 34.2433,21.2979 L34.1933,21.2979 C33.9333,21.3879 33.6833,21.4679 33.4133,21.5379 C32.1028,21.8691 30.7331,21.8896 29.4133,21.5979 L28.9833,21.4979 C28.7733,21.4379 28.5533,21.3779 28.3533,21.3079 C28.4191,21.4582 28.4925,21.6051 28.5733,21.7479 L28.6533,21.8779 L28.8333,22.1579 L28.9433,22.2979 L29.1433,22.5479 L29.2633,22.6779 L29.5133,22.9279 L29.6133,23.0179 L29.9833,23.3279 L30.1133,23.4179 L30.3833,23.6079 L30.5633,23.7179 L30.8033,23.8579 L31.0033,23.9579 L31.2533,24.0679 L31.4633,24.1579 L31.7433,24.2579 L32.0933,24.3579 L32.3533,24.4279 L32.6033,24.4279 L32.8334,24.4279 L33.0933,24.4279 L34.0933,24.4279 C34.6095,24.383 35.1155,24.2582 35.5933,24.0579 L34.6733,24.4379 L34.2133,24.5979 L33.7433,24.7679 L33.2733,24.9079 L32.7933,25.0479 L32.3233,25.1679 L31.8233,25.2879 L31.3633,25.3779 L30.8333,25.4679 L30.3933,25.5379 L29.8233,25.6079 L29.4133,25.6079 L28.7633,25.6079 L28.4233,25.6079 L27.4233,25.6079 C27.9761,25.7685 28.49,26.0408 28.9333,26.4079 C29.2199,26.6149 29.5326,26.7831 29.8633,26.9079 C30.011,26.9509 30.1614,26.9842 30.3133,27.0079 L30.4433,27.0079 L30.7633,27.0079 L32.1133,27.0079 L32.5533,27.0079 C33.4653,27.1 34.3477,27.3828 35.1434,27.8379 C35.5648,28.1092 35.9397,28.4469 36.2533,28.8379 C36.1133,29.0679 35.9733,29.2879 35.8533,29.5279 C35.7333,29.7679 35.6433,29.9279 35.5433,30.1379 C35.3433,30.5512 35.1667,30.9746 35.0134,31.4079 C34.4439,32.9615 34.1528,34.6033 34.1533,36.2579 C34.1533,36.5679 34.1533,36.8679 34.1533,37.1679 C34.1533,37.2479 34.1533,37.3379 34.1533,37.4179 C34.1533,37.6579 34.18,37.8979 34.2333,38.1379 L34.2333,38.3279 C34.2733,38.6212 34.3267,38.9112 34.3934,39.1979 L34.3934,39.3679 C34.4467,39.6079 34.5067,39.8446 34.5734,40.0779 L34.6334,40.2879 C34.8015,40.8535 35.0052,41.408 35.2433,41.9479 L35.3133,42.1079 C35.4267,42.3546 35.5433,42.5946 35.6633,42.8279 L35.6633,42.8979 C35.81,43.1646 35.9633,43.4279 36.1233,43.6879 L36.1233,43.7479 C36.27,43.9879 36.4266,44.2212 36.5933,44.4479 L36.6533,44.5279 C37.0125,45.0227 37.4033,45.4936 37.8234,45.9379 C38.9128,47.0856 40.1871,48.0422 41.5933,48.7679 C41.5453,48.9825 41.5086,49.1995 41.4833,49.4179 C41.4712,49.6444 41.4712,49.8714 41.4833,50.0979 L41.4833,55.3779 C41.1833,55.5379 40.89,55.7079 40.6033,55.8879 C28.0733,50.1979 9.41332,9.8879 9.41332,9.8879 L8.96334,9.8879 C10.7833,8.5279 8.96334,2.6079 8.96334,2.6079 C7.89506,1.97098 6.70055,1.57508 5.46334,1.44789 L4.46334,1.44789 L4.28334,1.44789 L4.15334,1.44789 L3.97335,1.44789 L3.85332,1.44789 L3.65334,1.50789 L3.55333,1.50789 L3.25335,1.61791 L2.97335,1.74791 L2.87334,1.7979 L2.68334,1.90792 L2.55333,2.5179 L2.37334,2.6379 L2.26332,2.72789 L2.09334,2.86791 L1.98333,2.96791 L1.81334,3.12789 L1.71334,3.2379 L1.54332,3.43791 L1.46334,3.53789 L1.21334,3.87789 C-1.51666,7.96789 1.21334,10.2479 1.21334,10.2479 C1.03757,11.825 0.95409,13.4111 0.963337,14.9979 C0.763337,44.4579 32.2933,67.2879 33.9033,68.4279 C33.1933,70.2679 27.3333,86.5679 33.9733,106.918 C33.9941,106.968 34.021,107.015 34.0533,107.058 C26.4929,114.025 20.8814,122.845 17.7737,132.645 C14.6659,142.445 14.1695,152.887 16.3333,162.938 L16.4633,163.548 L16.7533,163.548 C16.7236,163.683 16.6869,163.817 16.6433,163.948 C16.5661,164.189 16.4691,164.423 16.3533,164.648 C16.1536,165.032 15.9085,165.392 15.6233,165.718 C15.3133,166.078 14.9533,166.438 14.5733,166.808 L14.1733,167.188 C12.5833,168.708 10.9733,170.188 12.1733,170.788 L29.3833,170.788 L29.3833,163.278 L29.6833,163.278 C29.6833,163.278 29.5633,163.048 29.3833,162.598 L29.3833,162.518 L29.3233,162.518 C28.4233,160.198 26.3233,153.018 29.6833,141.958 C33.7733,128.308 49.6833,121.488 49.6833,121.488 L49.9733,122.488 L49.9133,122.488 L62.3934,163.488 C62.3934,163.648 62.3933,163.808 62.3433,163.978 C62.2869,164.365 62.1966,164.747 62.0734,165.118 C61.9776,165.405 61.8641,165.685 61.7333,165.958 C60.9633,167.548 59.6333,169.418 59.0533,170.818 C58.9703,171.01 58.9001,171.207 58.8433,171.408 C58.7747,171.634 58.7509,171.872 58.7733,172.108 C58.7904,172.258 58.8492,172.4 58.9428,172.518 C59.0364,172.637 59.1613,172.727 59.3033,172.778 L59.5333,172.778 L60.0134,172.698 L60.0333,172.698 Z M55.2133,55.9679 C54.9,55.7946 54.5666,55.6312 54.2133,55.4779 L54.2133,50.5179 C54.2106,50.1387 54.1738,49.7605 54.1033,49.3879 C55.1809,48.8741 56.189,48.2256 57.1033,47.4579 C56.5033,50.5179 55.8333,53.4479 55.2233,55.9679 L55.2133,55.9679 Z" id="path44_fill"></path>
                        </g>
                    </g>
                </g>
                <g id="Vector" transform="translate(324.000000, 319.000000)" fill="#AE5D29">
                    <g id="path45_fill-link" transform="translate(0.547000, 0.235800)">
                        <path d="M1.33334,9.37418 C1.33334,9.37418 -1.66666,6.85419 1.33334,2.31419 C4.33334,-2.22581 9.90335,1.31419 9.90335,1.31419 C9.90335,1.31419 11.9033,7.86418 9.90335,9.37418 C7.90335,10.8842 1.33334,9.37418 1.33334,9.37418 Z" id="path45_fill"></path>
                    </g>
                </g>
                <g id="&lt;Path&gt;" transform="translate(337.000000, 497.000000)" fill="#00695C">
                    <g id="path46_fill-link" transform="translate(0.518000, 0.270000)">
                        <path d="M19.5216,0 L5.63162,0 C5.68303,0.65428 5.5926,1.31198 5.36651,1.9281 C5.14043,2.54423 4.78402,3.10427 4.32162,3.57001 C2.45162,5.73001 -1.30836,8.33998 0.461637,9.22998 L19.5216,9.22998 L19.5216,0 Z" id="path46_fill"></path>
                    </g>
                </g>
                <g id="Vector" opacity="0.2" transform="translate(337.000000, 497.000000)" fill="#FFFFFF">
                    <g id="path47_fill-link" transform="translate(0.528000, 0.270000)">
                        <path d="M5.32163,3.57001 C5.78403,3.10427 6.14044,2.54423 6.36652,1.9281 C6.59261,1.31198 6.68304,0.65428 6.63163,0 L5.63163,0 C5.68304,0.65428 5.59261,1.31198 5.36652,1.9281 C5.14044,2.54423 4.78403,3.10427 4.32163,3.57001 C2.45163,5.73001 -1.30838,8.33998 0.461617,9.22998 L1.46162,9.22998 C-0.308383,8.33998 3.45163,5.74001 5.32163,3.57001 Z" id="path47_fill"></path>
                    </g>
                </g>
                <g id="&lt;Path&gt;" transform="translate(389.000000, 494.000000)" fill="#00695C">
                    <g id="path48_fill-link" transform="translate(0.621500, 0.410000)">
                        <path d="M16.8785,1.46484e-05 L3.87849,2.11 C4.23793,3.658 4.02849,5.28365 3.28846,6.69002 C1.86846,9.69002 -1.32154,13.43 0.598461,14.24 L19.4185,11.24 L16.8785,1.46484e-05 Z" id="path48_fill"></path>
                    </g>
                </g>
                <g id="Vector" transform="translate(382.000000, 322.000000)" fill="#00695C">
                    <g id="path49_fill-link" transform="translate(0.890000, 0.424900)">
                        <path d="M17.27,0.0351256 C17.27,0.0351256 32.14,46.9451 7.20003,72.9151 L1.46484e-05,67.4051 C1.46484e-05,67.4051 14.74,16.2051 6.49001,4.18512 C21.05,-0.66488 17.27,0.0351256 17.27,0.0351256 Z" id="path49_fill"></path>
                    </g>
                </g>
                <g id="Vector" transform="translate(388.000000, 317.000000)" fill="#AE5D29">
                    <g id="path50_fill-link" transform="translate(0.546700, 0.225800)">
                        <path d="M1.33334,9.37418 C1.33334,9.37418 -1.66666,6.85418 1.33334,2.31418 C4.33334,-2.22582 9.90335,1.31418 9.90335,1.31418 C9.90335,1.31418 11.9033,7.86418 9.90335,9.37418 C7.90335,10.8842 1.33334,9.37418 1.33334,9.37418 Z" id="path50_fill"></path>
                    </g>
                </g>
                <g id="Vector" opacity="0.2" transform="translate(389.000000, 494.000000)" fill="#FFFFFF">
                    <g id="path51_fill-link" transform="translate(0.621500, 0.360000)">
                        <path d="M4.28846,6.75003 C5.03092,5.34083 5.24042,3.71116 4.87849,2.16 L16.8785,0.16 L16.8785,2.68555e-05 L3.87849,2.16 C4.23793,3.708 4.02849,5.33365 3.28846,6.74002 C1.86846,9.74002 -1.32154,13.48 0.598461,14.29 L1.3885,14.16 C-0.0414995,13.16 2.92846,9.57003 4.28846,6.75003 Z" id="path51_fill"></path>
                    </g>
                </g>
                <g id="Vector" transform="translate(370.000000, 366.000000)" fill="#AE5D29">
                    <g id="path52_fill-link" transform="translate(0.480000, 0.160000)">
                        <path d="M14.11,7.06 C14.11,3.16087 10.9514,3.66211e-06 7.055,3.66211e-06 C3.15863,3.66211e-06 1.09863e-05,3.16087 1.09863e-05,7.06 L1.09863e-05,13.85 C1.09863e-05,17.7491 3.15863,20.91 7.055,20.91 C10.9514,20.91 14.11,17.7491 14.11,13.85 L14.11,7.06 Z" id="path52_fill"></path>
                    </g>
                </g>
                <g id="Vector" opacity="0.2" transform="translate(382.000000, 329.000000)" fill="#FFFFFF">
                    <g id="path53_fill-link" transform="translate(0.390000, 0.500000)">
                        <path d="M1.51002,63.35 C1.51002,63.35 16.07,12.78 8.14003,0.349987 C7.44003,0.219987 6.99001,0.120006 6.99001,0.120006 L6.86,1.09863e-05 L6.49001,0.120006 C14.74,12.12 1.46484e-05,63.34 1.46484e-05,63.34 L7.20003,68.85 L7.82997,68.17 L1.51002,63.35 Z" id="path53_fill"></path>
                    </g>
                </g>
                <g id="Vector" transform="translate(362.000000, 342.000000)" fill="#AE5D29">
                    <g id="path54_fill-link" transform="translate(0.170000, 0.230000)">
                        <path d="M15.62,31.24 C24.2467,31.24 31.24,24.2467 31.24,15.62 C31.24,6.99332 24.2467,1.09863e-05 15.62,1.09863e-05 C6.99332,1.09863e-05 1.34277e-05,6.99332 1.34277e-05,15.62 C1.34277e-05,24.2467 6.99332,31.24 15.62,31.24 Z" id="path54_fill"></path>
                    </g>
                </g>
                <g id="Vector" opacity="0.2" transform="translate(362.000000, 342.000000)" fill="#FFFFFF">
                    <g id="path55_fill-link" transform="translate(0.155100, 0.250000)">
                        <path d="M10.0849,37.77 L10.0849,30.97 C10.0855,30.4724 10.1392,29.9762 10.2449,29.49 C7.19458,27.9234 4.7445,25.3964 3.27278,22.2991 C1.80106,19.2019 1.38946,15.7064 2.10152,12.3519 C2.81358,8.99753 4.60972,5.97063 7.21278,3.73832 C9.81584,1.50601 13.0811,0.19236 16.5049,1.09862721e-05 L15.625,1.17593e-05 C12.1212,-0.00109014 8.71869,1.17585 5.96449,3.34172 C3.2103,5.50758 1.26429,8.53658 0.439223,11.9418 C-0.385841,15.3471 -0.0419942,18.9309 1.41542,22.1172 C2.87283,25.3035 5.3592,27.9072 8.47493,29.51 C8.36914,29.9962 8.31547,30.4924 8.31489,30.99 L8.31489,37.79 C8.3058,38.794 8.51281,39.7882 8.92183,40.7051 C9.33085,41.6221 9.93237,42.4403 10.6855,43.1042 C11.4386,43.7682 12.3258,44.2624 13.2868,44.5533 C14.2477,44.8441 15.26,44.9249 16.2549,44.79 C14.5493,44.5689 12.9824,43.7346 11.847,42.4427 C10.7116,41.1509 10.0852,39.4899 10.0849,37.77 Z" id="path55_fill"></path>
                    </g>
                </g>
                <g id="Vector" transform="translate(358.000000, 377.000000)" fill="#00695C">
                    <g id="path56_fill-link" transform="translate(0.948900, 0.250000)">
                        <path d="M34.7111,58.45 C34.7111,58.45 4.58109,61.85 3.47109,58.45 C-4.33891,34.51 3.47109,15.62 3.47109,15.62 C3.47109,11.4773 5.11679,7.50431 8.04611,4.57499 C10.9754,1.64567 14.9484,1.09863e-05 19.0911,1.09863e-05 C23.2338,1.09863e-05 27.2068,1.64567 30.1361,4.57499 C33.0655,7.50431 34.7111,11.4773 34.7111,15.62 L34.7111,58.45 Z" id="path56_fill"></path>
                    </g>
                </g>
                <g id="Vector" transform="translate(341.000000, 435.000000)" fill="#263238">
                    <g id="path57_fill-link" transform="translate(0.144700, 0.700000)">
                        <path d="M52.5153,-7.32422e-06 L66.1253,62.49 L52.5153,62.49 L38.4053,16.13 C38.4053,16.13 20.7653,23.69 16.2353,38.81 C11.7053,53.93 16.2353,62.49 16.2353,62.49 L1.61533,62.49 L1.46531,61.81 C-0.93976,50.6757 -0.376547,39.1049 3.09849,28.2568 C6.57352,17.4088 12.8383,7.66438 21.2653,-7.32422e-06" id="path57_fill"></path>
                    </g>
                </g>
                <g id="Vector" opacity="0.2" transform="translate(358.000000, 377.000000)" fill="#FFFFFF">
                    <g id="path58_fill-link" transform="translate(0.698900, 0.280000)">
                        <path d="M5.4811,58.42 C-2.3289,34.48 5.4811,15.59 5.4811,15.59 C5.48042,11.6217 6.99017,7.8019 9.7037,4.90635 C12.4172,2.0108 16.1311,0.256603 20.0911,9.76562e-06 C19.7611,9.76562e-06 19.4211,9.76562e-06 19.0911,9.76562e-06 C14.9484,9.76562e-06 10.9754,1.64567 8.04611,4.57499 C5.11679,7.50431 3.47109,11.4773 3.47109,15.62 C3.47109,15.62 -4.33891,34.52 3.47109,58.45 C3.87109,59.67 7.99111,60.01 13.1111,59.96 C8.95111,59.87 5.8011,59.47 5.4811,58.42 Z" id="path58_fill"></path>
                    </g>
                </g>
                <g id="Vector" transform="translate(325.000000, 328.000000)" fill="#00695C">
                    <g id="path59_fill-link" transform="translate(0.607000, 0.610000)">
                        <path d="M36.5632,64 C36.5632,64 -3.74676,35.78 0.283237,-3.66211e-06 L9.35321,-3.66211e-06 C9.35321,-3.66211e-06 31.0132,46.91 44.8932,51.41 C58.7732,55.91 36.5632,64 36.5632,64 Z" id="path59_fill"></path>
                    </g>
                </g>
                <g id="Group" opacity="0.2" transform="translate(341.000000, 435.000000)" fill="#FFFFFF">
                    <g id="Vector" transform="translate(38.000000, 17.000000)">
                        <g id="path60_fill-link" transform="translate(0.810000, 0.080000)">
                            <path d="M-2.44141e-06,0.849973 L13.85,46.36 L15.85,46.36 L1.73999,-2.44141e-06 C1.73999,-2.44141e-06 1.09,0.279973 -2.44141e-06,0.849973 Z" id="path60_fill"></path>
                        </g>
                    </g>
                    <g id="Vector">
                        <g id="path61_fill-link" transform="translate(0.164700, 0.950000)">
                            <path d="M23.2653,-7.32422e-06 L21.2653,-7.32422e-06 C12.8383,7.66438 6.57351,17.4088 3.09848,28.2568 C-0.376558,39.1049 -0.93974,50.6757 1.46533,61.81 L1.61532,62.49 L3.61532,62.49 L3.46533,61.81 C1.06026,50.6757 1.62344,39.1049 5.09848,28.2568 C8.57351,17.4088 14.8383,7.66438 23.2653,-7.32422e-06 Z" id="path61_fill"></path>
                        </g>
                    </g>
                </g>
                <g id="Vector" opacity="0.2" transform="translate(325.000000, 329.000000)" fill="#FFFFFF">
                    <g id="path62_fill-link" transform="translate(0.611000, 0.120000)">
                        <path d="M1.78934,6.10352e-06 L0.279362,6.10352e-06 C-3.72064,35.78 36.5593,64 36.5593,64 L37.5593,63.62 C32.8893,60.17 -1.98066,33.4 1.78934,6.10352e-06 Z" id="path62_fill"></path>
                    </g>
                </g>
                <g id="Vector" transform="translate(354.000000, 335.000000)" fill="#263238">
                    <g id="path63_fill-link" transform="translate(0.750000, 0.283800)">
                        <path d="M10.58,15.5862 C11.4509,17.5972 12.0624,19.7109 12.4,21.8762 C13.4,26.2562 15.66,30.6262 19.55,32.8762 C21.7045,34.0449 24.1005,34.6986 26.55,34.7862 C30.27,35.0162 34.3,34.2962 36.93,31.6562 C38.5681,29.8677 39.667,27.6525 40.1,25.2662 C40.8869,21.7409 40.7784,18.0748 39.7845,14.6022 C38.7906,11.1296 36.9429,7.96124 34.41,5.38617 C31.8095,2.87477 28.5525,1.14904 25.0141,0.407744 C21.4757,-0.333549 17.7998,-0.0602458 14.41,1.19617 C13.1989,1.78864 11.9285,2.25122 10.62,2.57617 C9.61821,2.73664 8.59249,2.65319 7.62982,2.33288 C6.66716,2.01258 5.79597,1.46485 5.09003,0.736174 C4.92783,1.26117 4.89187,1.81704 4.98511,2.35855 C5.07835,2.90006 5.29815,3.4119 5.62659,3.85242 C5.95503,4.29293 6.38282,4.64968 6.87518,4.89361 C7.36755,5.13754 7.91057,5.26175 8.46002,5.25616 C7.30423,5.81103 6.05014,6.13204 4.7699,6.20068 C3.48966,6.26933 2.20849,6.08429 1,5.65619 C1.68498,7.09917 2.89014,8.22982 4.37384,8.82144 C5.85754,9.41306 7.51006,9.42189 9,8.84616 C6.16934,10.1062 3.09806,10.7341 0,10.6862 C0.65,10.6862 1.91999,11.8862 2.70999,12.1262 C3.70193,12.2837 4.70581,12.354 5.71002,12.3362 C6.73654,12.3993 7.72798,12.7333 8.58344,13.3042 C9.43889,13.8751 10.1278,14.6625 10.58,15.5862 Z" id="path63_fill"></path>
                    </g>
                </g>
                <g id="Group" opacity="0.2" transform="translate(354.000000, 335.000000)" fill="#FFFFFF">
                    <g id="Vector" transform="translate(5.000000, 1.000000)">
                        <g id="path64_fill-link" transform="translate(0.550000, 0.000000)">
                            <path d="M3.7,4.52 C2.54248,5.08056 1.28438,5.4036 -1.2207e-05,5.47001 C1.62481,5.55336 3.24453,5.22666 4.71001,4.52 C4.22107,4.52293 3.73687,4.42424 3.28807,4.23021 C2.83927,4.03617 2.43564,3.75103 2.10283,3.39283 C1.77002,3.03464 1.51524,2.61122 1.35466,2.14939 C1.19408,1.68757 1.13118,1.19741 1.16997,0.710002 C0.868615,0.499824 0.587444,0.262147 0.330005,1.09863e-05 C0.167809,0.525005 0.131848,1.08088 0.225085,1.62239 C0.318323,2.1639 0.538127,2.67574 0.866565,3.11625 C1.195,3.55677 1.62279,3.91352 2.11516,4.15745 C2.60753,4.40138 3.15055,4.52559 3.7,4.52 Z" id="path64_fill"></path>
                        </g>
                    </g>
                    <g id="Vector" transform="translate(10.000000, 0.000000)">
                        <g id="path65_fill-link" transform="translate(0.870000, 0.270700)">
                            <path d="M1.53997,2.59929 C2.84847,2.27434 4.11893,1.81176 5.33001,1.21928 C7.24268,0.464177 9.27418,0.0545001 11.33,0.0092903 C8.93861,-0.0684865 6.55654,0.343263 4.33001,1.21928 C3.11893,1.81176 1.84847,2.27434 0.539973,2.59929 C0.359973,2.59929 0.179995,2.59928 -4.88281e-06,2.65928 C0.513773,2.70557 1.03135,2.68541 1.53997,2.59929 Z" id="path65_fill"></path>
                        </g>
                    </g>
                    <g id="Vector" transform="translate(0.000000, 9.000000)">
                        <g id="path66_fill-link" transform="translate(0.710000, 0.140000)">
                            <path d="M3.70998,3.27999 C2.91998,3.04999 1.64999,1.85999 0.999991,1.83999 C4.09805,1.88793 7.16937,1.26003 10,-4.88281e-06 C9.3649,0.261923 8.68686,0.404324 8.00002,0.420009 C5.44897,1.40156 2.73301,1.88362 -8.54492e-06,1.83999 C0.649991,1.83999 1.92001,3.03999 2.71001,3.27999 C3.39669,3.44689 4.10543,3.50428 4.81002,3.45001 C4.43762,3.44035 4.06793,3.38321 3.70998,3.27999 Z" id="path66_fill"></path>
                        </g>
                    </g>
                    <g id="Vector" transform="translate(5.000000, 12.000000)">
                        <g id="path67_fill-link" transform="translate(0.930000, 0.622000)">
                            <path d="M22.4,22.458 C19.9505,22.3704 17.5545,21.7167 15.4,20.548 C11.51,18.278 9.28999,13.908 8.24999,9.54796 C7.9124,7.38262 7.30082,5.269 6.42999,3.25795 C5.97014,2.32947 5.27078,1.54059 4.40411,0.972767 C3.53743,0.404945 2.53487,0.0787845 1.49999,0.0279732 C1.00069,-0.00931789 0.499297,-0.00931789 -7.32422e-06,0.0279732 L0.489983,0.0279732 C1.52486,0.0787845 2.52742,0.404945 3.3941,0.972767 C4.26077,1.54059 4.96013,2.32947 5.41998,3.25795 C6.29081,5.269 6.90239,7.38262 7.23998,9.54796 C8.23998,13.928 10.5,18.298 14.39,20.548 C16.5445,21.7167 18.9405,22.3704 21.39,22.458 C21.97,22.458 22.55,22.458 23.14,22.458 L22.4,22.458 Z" id="path67_fill"></path>
                        </g>
                    </g>
                    <g id="Vector" transform="translate(1.000000, 5.000000)">
                        <g id="path68_fill-link" transform="translate(0.790000, 0.920000)">
                            <path d="M6.29002,3.6 C5.23203,3.52354 4.20975,3.18448 3.31577,2.61352 C2.4218,2.04256 1.68431,1.25773 1.16999,0.330011 C0.773226,0.24559 0.382411,0.135338 8.54492e-06,-6.10352e-06 C0.559461,1.16731 1.46075,2.13684 2.58421,2.77984 C3.70767,3.42284 5.00015,3.70888 6.29002,3.6 Z" id="path68_fill"></path>
                        </g>
                    </g>
                </g>
                <g id="Vector" opacity="0.2" transform="translate(324.000000, 319.000000)" fill="#FFFFFF">
                    <g id="path69_fill-link" transform="translate(0.557000, 0.226500)">
                        <path d="M2.33335,9.38351 C2.33335,9.38351 -0.666652,6.86351 2.33335,2.32351 C2.73184,1.67378 3.27842,1.12759 3.92844,0.729577 C4.57846,0.331568 5.31347,0.0930389 6.07334,0.0335014 C5.14725,-0.0753622 4.20931,0.0823012 3.36969,0.487939 C2.53008,0.893576 1.82365,1.53035 1.33335,2.32351 C-1.66665,6.86351 1.33335,9.38351 1.33335,9.38351 C3.27999,9.81934 5.26851,10.0407 7.26334,10.0435 C5.6045,9.96114 3.95544,9.74037 2.33335,9.38351 Z" id="path69_fill"></path>
                    </g>
                </g>
                <g id="Group" opacity="0.2" transform="translate(36.000000, 328.000000)" fill="url(#linearGradient-30)">
                    <g id="Vector">
                        <g id="path70_fill-link" transform="translate(0.572000, 0.537700)">
                            <path d="M0.398001,0.312264 L0.478003,0.0422753 C0.478003,0.0422753 -0.541999,-0.157736 0.398001,0.312264 Z" id="path70_fill"></path>
                        </g>
                    </g>
                </g>
                <g id="Group" opacity="0.2" transform="translate(15.000000, 322.000000)" fill="url(#linearGradient-32)">
                    <g id="Vector">
                        <g id="path71_fill-link" transform="translate(0.800000, 0.887900)">
                            <path d="M115.4,22.7221 C115.304,22.4035 115.183,22.0926 115.04,21.7921 C115.04,21.6921 114.94,21.6121 114.89,21.5221 C114.799,21.3436 114.699,21.17 114.59,21.0021 L114.39,20.7421 C114.287,20.6066 114.176,20.4765 114.06,20.3521 L113.83,20.1221 C113.71,20.0121 113.59,19.9121 113.47,19.8221 L113.22,19.6421 L112.82,19.4021 L112.57,19.2721 L112.12,19.0821 L111.89,18.9921 C111.677,18.9188 111.46,18.8588 111.24,18.8121 C109.785,18.537 108.288,18.5779 106.85,18.9321 C106.85,18.9321 102.66,25.1121 104.27,27.3321 L103.74,27.1721 C103.74,27.1721 72.61,61.9121 55.05,68.3621 C54.6033,68.0555 54.14,67.7688 53.66,67.5021 L53.66,61.0021 C53.6746,60.729 53.6746,60.4552 53.66,60.1821 C53.6299,59.9234 53.5865,59.6664 53.53,59.4121 L53.66,59.3421 L54.18,59.0521 L54.93,58.5921 L55.41,58.2821 C55.77,58.0354 56.1033,57.7754 56.41,57.5021 L56.8,57.1621 C57.04,56.9621 57.27,56.7521 57.49,56.5321 L57.89,56.1421 C58.17,55.8555 58.4367,55.5621 58.69,55.2621 L58.97,54.9221 C59.21,54.6221 59.44,54.3154 59.66,54.0021 L59.94,53.5821 C60.14,53.2755 60.33,52.9621 60.51,52.6421 L60.69,52.3321 C60.91,51.9221 61.12,51.4921 61.3,51.0521 L61.46,50.6621 C61.6,50.3088 61.73,49.9521 61.85,49.5921 C61.85,49.4621 61.94,49.3421 61.97,49.2121 C62.11,48.7421 62.24,48.2721 62.34,47.7821 C62.34,47.6821 62.34,47.5921 62.39,47.4921 C62.47,47.0854 62.5333,46.6721 62.58,46.2521 C62.58,46.1121 62.58,45.9721 62.58,45.8321 C62.58,45.3221 62.66,44.8321 62.66,44.2821 C62.6605,40.3912 61.3262,36.6179 58.88,33.5921 C60.21,31.5121 61.08,30.2821 61.08,30.2821 C60.28,29.7321 59.49,29.2321 58.71,28.7421 L57.95,28.2921 C57.43,27.9821 56.95,27.6721 56.39,27.3921 L55.52,26.9321 C55.05,26.6821 54.59,26.4421 54.13,26.2221 L53.24,25.8121 L51.91,25.2321 L51.04,24.8821 C50.6,24.7121 50.16,24.5521 49.73,24.4021 L48.91,24.1221 C48.46,23.9821 48.01,23.8521 47.57,23.7321 L46.84,23.5321 C46.34,23.4121 45.84,23.3121 45.35,23.2121 L44.82,23.1021 C44.15,22.9821 43.49,22.8921 42.82,22.8321 C38.7281,22.3937 34.5925,23.0278 30.82,24.6721 C31.02,19.8921 31.82,15.9521 33.5,13.5121 L33.09,13.3721 L32.95,13.5121 C32.95,13.5121 32.46,13.6221 31.69,13.7621 C31.447,14.1507 31.2299,14.5549 31.04,14.9721 C31.3761,13.2808 32.0238,11.6667 32.95,10.2121 L32.54,10.0721 C33.13,9.46212 35.27,6.83213 32.4,2.52213 C29.1,-2.41787 23.06,1.42212 23.06,1.42212 C22.5812,3.05338 22.2663,4.72834 22.12,6.42212 C21.66,6.23212 21.33,6.09212 21.12,5.98212 C18.2264,16.1928 16.6503,26.7316 16.43,37.3421 C5.54,52.8021 1.04001,75.6221 0.160007,80.5421 L0.0899994,80.9321 C0.0299994,81.2921 3.05176e-06,81.4821 3.05176e-06,81.4821 L28.31,82.1421 C28.31,82.2421 28.31,82.3321 28.31,82.4321 L28.31,127.262 L7.7,170.852 C7.7,170.852 15.54,171.102 27.34,172.612 L24.08,195.922 L22.99,202.462 L42.61,202.462 C44.79,198.102 33.89,195.922 33.89,195.922 L33.65,195.922 L37.9,174.172 C39.78,174.485 41.7133,174.819 43.7,175.172 C46.6127,175.735 49.5651,176.07 52.53,176.172 C54.9846,176.258 57.4421,176.151 59.88,175.852 C61.32,187.642 59.43,194.682 59.07,195.852 L58.96,195.852 L57.87,202.392 L77.49,202.392 C79.39,198.592 71.35,196.442 69.26,195.962 L69.35,195.322 C70.3591,187.967 70.6171,180.529 70.12,173.122 C72.6517,172.096 75.0122,170.69 77.12,168.952 L77.39,168.712 L77.47,168.632 L62.86,127.632 C65.59,116.032 56.09,103.852 61.16,97.7621 C66.23,91.6721 63.16,83.9021 62.56,82.5721 C76.28,76.5721 104.01,61.5721 111.79,35.5721 C112.361,33.7441 112.826,31.8843 113.18,30.0021 C113.18,30.0021 117.1,28.4121 115.4,22.7221 Z" id="path71_fill"></path>
                        </g>
                    </g>
                </g>
                <g id="Vector" transform="translate(35.000000, 336.000000)" fill="#FF5252">
                    <g id="path72_fill-link" transform="translate(0.681000, 0.424900)">
                        <path d="M4.39882,0.0351256 C4.39882,0.0351256 -10.4712,46.9451 14.4688,72.9151 L21.6688,67.4051 C21.6688,67.4051 6.92882,16.2051 15.1788,4.18512 C0.618817,-0.66488 4.39882,0.0351256 4.39882,0.0351256 Z" id="path72_fill"></path>
                    </g>
                </g>
                <g id="Vector" transform="translate(40.000000, 331.000000)" fill="#F6B9AD">
                    <g id="path73_fill-link" transform="translate(0.901000, 0.225800)">
                        <path d="M9.45889,9.37418 C9.45889,9.37418 12.4589,6.85418 9.45889,2.31418 C6.45889,-2.22582 0.888882,1.31418 0.888882,1.31418 C0.888882,1.31418 -1.11112,7.86418 0.888882,9.37418 C2.88888,10.8842 9.45889,9.37418 9.45889,9.37418 Z" id="path73_fill"></path>
                    </g>
                </g>
                <g id="Vector" transform="translate(54.000000, 380.000000)" fill="#F6B9AD">
                    <g id="path74_fill-link" transform="translate(8.260000, 10.569980) rotate(180.000000) translate(-8.260000, -10.569980) translate(0.760000, 0.069980)">
                        <path d="M14.11,7.06001 C14.11,3.16088 10.9514,1.46484e-05 7.055,1.46484e-05 C3.15863,1.46484e-05 -6.10352e-06,3.16088 -6.10352e-06,7.06001 L-6.10352e-06,13.85 C-6.10352e-06,17.7491 3.15863,20.91 7.055,20.91 C10.9514,20.91 14.11,17.7491 14.11,13.85 L14.11,7.06001 Z" id="path74_fill"></path>
                    </g>
                </g>
                <g id="Vector" opacity="0.2" transform="translate(47.000000, 343.000000)" fill="#FFFFFF">
                    <g id="path75_fill-link" transform="translate(0.346000, 0.500000)">
                        <path d="M8.9943,63.35 C8.9943,63.35 -5.56569,12.78 2.36431,0.349987 C3.06431,0.219987 3.51431,0.120006 3.51431,0.120006 L3.64431,1.09863e-05 L4.01431,0.120006 C-4.23569,12.12 10.5043,63.34 10.5043,63.34 L3.3043,68.85 L2.67431,68.17 L8.9943,63.35 Z" id="path75_fill"></path>
                    </g>
                </g>
                <g id="Vector" transform="translate(46.000000, 356.000000)" fill="#F6B9AD">
                    <g id="path76_fill-link" transform="translate(0.830000, 0.230000)">
                        <path d="M15.62,31.24 C24.2467,31.24 31.24,24.2467 31.24,15.62 C31.24,6.99332 24.2467,1.09863e-05 15.62,1.09863e-05 C6.99331,1.09863e-05 0,6.99332 0,15.62 C0,24.2467 6.99331,31.24 15.62,31.24 Z" id="path76_fill"></path>
                    </g>
                </g>
                <g id="Vector" opacity="0.2" transform="translate(61.000000, 356.000000)" fill="#FFFFFF">
                    <g id="path77_fill-link" transform="translate(0.580000, 0.250000)">
                        <path d="M6.42,37.77 L6.42,30.97 C6.41942,30.4724 6.36578,29.9762 6.26,29.49 C9.31036,27.9234 11.7604,25.3964 13.2321,22.2991 C14.7039,19.2019 15.1154,15.7064 14.4034,12.3519 C13.6913,8.99753 11.8952,5.97063 9.29215,3.73832 C6.68909,1.50601 3.42376,0.19236 1.83105e-06,1.09862721e-05 L0.880007,1.17593e-05 C4.3838,-0.00109014 7.78621,1.17585 10.5404,3.34172 C13.2946,5.50758 15.2406,8.53658 16.0657,11.9418 C16.8907,15.3471 16.5469,18.9309 15.0895,22.1172 C13.6321,25.3035 11.1457,27.9072 8.03,29.51 C8.13579,29.9962 8.18943,30.4924 8.19,30.99 L8.19,37.79 C8.1991,38.794 7.99211,39.7882 7.58309,40.7051 C7.17406,41.6221 6.57258,42.4403 5.81944,43.1042 C5.06631,43.7682 4.17916,44.2624 3.21819,44.5533 C2.25722,44.8441 1.24493,44.9249 0.250002,44.79 C1.95564,44.5689 3.52247,43.7346 4.6579,42.4427 C5.79333,41.1509 6.41969,39.4899 6.42,37.77 Z" id="path77_fill"></path>
                    </g>
                </g>
                <g id="Vector" transform="translate(46.000000, 391.000000)" fill="#FF5252">
                    <g id="path78_fill-link" transform="translate(0.580000, 0.250000)">
                        <path d="M1.83105e-06,58.45 C1.83105e-06,58.45 30.13,61.85 31.24,58.45 C34.84,47.45 25.24,35.56 30.04,29.75 C35.04,23.75 31.24,15.62 31.24,15.62 C31.24,11.4773 29.5943,7.50431 26.665,4.57499 C23.7357,1.64567 19.7627,1.09863e-05 15.62,1.09863e-05 C11.4773,1.09863e-05 7.50432,1.64567 4.575,4.57499 C1.64568,7.50431 1.83105e-06,11.4773 1.83105e-06,15.62 L1.83105e-06,58.45 Z" id="path78_fill"></path>
                    </g>
                </g>
                <g id="Vector" opacity="0.2" transform="translate(61.000000, 391.000000)" fill="#FFFFFF">
                    <g id="path79_fill-link" transform="translate(0.240000, 0.250000)">
                        <path d="M15.42,29.75 C20.42,23.75 16.62,15.62 16.62,15.62 C16.62,11.4773 14.9743,7.50431 12.045,4.57499 C9.11569,1.64567 5.14269,1.09863e-05 1.00001,1.09863e-05 C0.660005,1.09863e-05 0.330006,-1.2219e-06 5.49316e-06,0.0499988 C3.95919,0.3016 7.67404,2.05119 10.3896,4.94325 C13.1052,7.8353 14.6178,11.6528 14.62,15.62 C14.62,15.62 18.42,23.75 13.42,29.75 C8.58,35.56 18.22,47.44 14.62,58.45 C14.28,59.5 11.17,59.9 7.04,59.96 C12.13,60.01 16.23,59.67 16.62,58.45 C20.26,47.43 10.58,35.56 15.42,29.75 Z" id="path79_fill"></path>
                    </g>
                </g>
                <g id="Vector" transform="translate(42.000000, 448.000000)" fill="#F6B9AD">
                    <g id="path80_fill-link" transform="translate(0.630000, 0.700000)">
                        <path d="M28.8,-7.32422e-06 C39.8,15.59 44.67,39.15 41.52,61.81 L41.43,62.49 L32.04,62.49 C32.04,62.49 34.95,53.92 32.04,38.81 C30.2563,29.7511 25.1841,21.6725 17.8,16.13 L8.74,62.49 L4.88281e-06,62.49 L8.74,-7.32422e-06 L28.8,-7.32422e-06 Z" id="path80_fill"></path>
                    </g>
                </g>
                <g id="Vector" transform="translate(115.000000, 348.000000)" fill="#F6B9AD">
                    <g id="path81_fill-link" transform="translate(0.857000, 0.325200)">
                        <path d="M8.5328,10.5048 C8.5328,10.5048 12.1628,8.98483 10.6028,3.75483 C9.04277,-1.47517 2.70278,0.284824 2.70278,0.284824 C2.70278,0.284824 -1.1472,5.95482 0.342795,7.99482 C1.8328,10.0348 8.5328,10.5048 8.5328,10.5048 Z" id="path81_fill"></path>
                    </g>
                </g>
                <g id="Vector" transform="translate(61.000000, 356.000000)" fill="#FF5252">
                    <g id="path82_fill-link" transform="translate(0.183000, 0.170000)">
                        <path d="M9.75674,53.22 C9.75674,53.22 56.5667,38.05 63.1967,2.66 L54.5267,-6.10352e-06 C54.5267,-6.10352e-06 20.0767,38.46 5.52674,38.73 C-9.02326,39 9.75674,53.22 9.75674,53.22 Z" id="path82_fill"></path>
                    </g>
                </g>
                <g id="Vector" opacity="0.2" transform="translate(69.000000, 358.000000)" fill="#FFFFFF">
                    <g id="path83_fill-link" transform="translate(0.970000, 0.870000)">
                        <path d="M52.82,6.10352e-06 L54.27,0.440009 C47.64,35.83 0.830003,51 0.830003,51 L1.2207e-06,50.35 C5.53,48.43 46.64,33.01 52.82,6.10352e-06 Z" id="path83_fill"></path>
                    </g>
                </g>
                <g id="Group" opacity="0.2" transform="translate(49.000000, 448.000000)" fill="#FFFFFF">
                    <g id="Vector" transform="translate(0.000000, 16.000000)">
                        <g id="path84_fill-link" transform="translate(0.360000, 0.830000)">
                            <path d="M9.06,-2.44141e-06 L6.10352e-07,46.36 L2,46.36 L10.8,1.35998 C10.2435,0.877317 9.66278,0.423407 9.06,-2.44141e-06 Z" id="path84_fill"></path>
                        </g>
                    </g>
                    <g id="Vector" transform="translate(20.000000, 0.000000)">
                        <g id="path85_fill-link" transform="translate(0.430000, 0.700000)">
                            <path d="M1.99999,-7.32422e-06 L-7.32422e-06,-7.32422e-06 C11,15.59 15.87,39.15 12.72,61.81 L12.63,62.49 L14.63,62.49 L14.72,61.81 C17.87,39.15 13.02,15.59 1.99999,-7.32422e-06 Z" id="path85_fill"></path>
                        </g>
                    </g>
                </g>
                <g id="Vector" opacity="0.2" transform="translate(118.000000, 348.000000)" fill="#FFFFFF">
                    <g id="path86_fill-link" transform="translate(0.520000, 0.480000)">
                        <path d="M4.90001,10.04 C4.90001,10.04 8.52999,8.52 6.96999,3.29 C6.7805,2.55168 6.41897,1.86868 5.91494,1.29687 C5.4109,0.725051 4.77869,0.280647 4.07,-8.54492e-06 C4.98737,0.167554 5.83788,0.593414 6.52163,1.22756 C7.20537,1.86171 7.69397,2.67782 7.93001,3.58001 C9.49001,8.80001 5.86,10.33 5.86,10.33 C3.87239,10.1782 1.90734,9.80936 -1.09863e-05,9.23 C1.60797,9.63574 3.247,9.90668 4.90001,10.04 Z" id="path86_fill"></path>
                    </g>
                </g>
                <g id="Vector" transform="translate(27.000000, 448.000000)" fill="#929598">
                    <g id="path87_fill-link" transform="translate(0.580000, 0.000000)">
                        <path d="M19,-1.95312e-05 L1.83105e-06,40 C11.0806,40.5527 22.1082,41.8894 33,44 C54,48 64,38 64,38 L50.45,-1.95312e-05 L19,-1.95312e-05 Z" id="path87_fill"></path>
                    </g>
                </g>
                <g id="Vector" transform="translate(41.000000, 511.000000)" fill="#FF5252">
                    <g id="path88_fill-link" transform="translate(0.620000, 0.000000)">
                        <path d="M10,-1.95312e-05 C10,-1.95312e-05 20,1.99998 18,5.99998 L-4.88281e-06,5.99998 L0.999995,-1.95312e-05 L10,-1.95312e-05 Z" id="path88_fill"></path>
                    </g>
                </g>
                <g id="Vector" transform="translate(73.000000, 511.000000)" fill="#FF5252">
                    <g id="path88_fill-link" transform="translate(0.620000, 0.000000)">
                        <path d="M10,-1.95312e-05 C10,-1.95312e-05 20,1.99998 18,5.99998 L-4.88281e-06,5.99998 L0.999995,-1.95312e-05 L10,-1.95312e-05 Z" id="path88_fill"></path>
                    </g>
                </g>
                <g id="Vector" transform="translate(20.000000, 352.000000)" fill="#FCCC63">
                    <g id="path89_fill-link" transform="translate(0.620000, 0.061800)">
                        <path d="M56,6.93822 C56,6.93822 32,40.9382 43,54.9382 L-4.88281e-06,53.9382 C-4.88281e-06,53.9382 12,-23.0618 56,6.93822 Z" id="path89_fill"></path>
                    </g>
                </g>
                <g id="Vector" opacity="0.2" transform="translate(20.000000, 352.000000)" fill="#FFFFFF">
                    <g id="path90_fill-link" transform="translate(0.620000, 0.180000)">
                        <path d="M56,6.82001 C49.8,2.59001 44.24,0.490004 39.25,3.66211e-06 C43.4452,1.31792 47.4094,3.28148 51,5.82001 C51,5.82001 27,39.82 38,53.82 L0.150004,52.94 C0.0500043,53.51 -4.88281e-06,53.82 -4.88281e-06,53.82 L43,54.82 C32,40.82 56,6.82001 56,6.82001 Z" id="path90_fill"></path>
                    </g>
                </g>
                <g id="Vector" opacity="0.2" transform="translate(68.000000, 448.000000)" fill="#FFFFFF">
                    <g id="path91_fill-link" transform="translate(0.730000, 0.000000)">
                        <path d="M9.35,-1.95312e-05 L6.35,-1.95312e-05 L19.9,38 C19.9,38 13.44,44.45 -4.27246e-06,44.91 C15.47,45.41 22.9,38 22.9,38 L9.35,-1.95312e-05 Z" id="path91_fill"></path>
                    </g>
                </g>
                <g id="Vector" opacity="0.2" transform="translate(49.000000, 511.000000)" fill="#FFFFFF">
                    <g id="path92_fill-link" transform="translate(0.620000, 0.000000)">
                        <path d="M2,-1.95312e-05 L-4.88281e-06,-1.95312e-05 C-4.88281e-06,-1.95312e-05 10,1.99998 8,5.99998 L10,5.99998 C12,1.99998 2,-1.95312e-05 2,-1.95312e-05 Z" id="path92_fill"></path>
                    </g>
                </g>
                <g id="Vector" opacity="0.2" transform="translate(81.000000, 511.000000)" fill="#FFFFFF">
                    <g id="path92_fill-link" transform="translate(0.620000, 0.000000)">
                        <path d="M2,-1.95312e-05 L-4.88281e-06,-1.95312e-05 C-4.88281e-06,-1.95312e-05 10,1.99998 8,5.99998 L10,5.99998 C12,1.99998 2,-1.95312e-05 2,-1.95312e-05 Z" id="path92_fill"></path>
                    </g>
                </g>
            </g>
        </g>
    </g>
</svg>