<svg class="landing-page-graphs" width="447" height="535" xmlns="http://www.w3.org/2000/svg"><defs><linearGradient x1="-11.364%" y1="100%" x2="-11.364%" y2="0%" id="a"><stop stop-color="gray" stop-opacity=".25" offset="0%"/><stop stop-color="gray" stop-opacity=".12" offset="54%"/><stop stop-color="gray" stop-opacity=".1" offset="100%"/></linearGradient><linearGradient x1="22211.998%" y1="37300%" x2="22211.998%" y2="36200%" id="b"><stop stop-color="gray" stop-opacity=".25" offset="0%"/><stop stop-color="gray" stop-opacity=".12" offset="54%"/><stop stop-color="gray" stop-opacity=".1" offset="100%"/></linearGradient><linearGradient x1="22211.998%" y1="42900%" x2="22211.998%" y2="41800%" id="c"><stop stop-color="gray" stop-opacity=".25" offset="0%"/><stop stop-color="gray" stop-opacity=".12" offset="54%"/><stop stop-color="gray" stop-opacity=".1" offset="100%"/></linearGradient><linearGradient x1="32411.997%" y1="42900%" x2="32411.997%" y2="41800%" id="d"><stop stop-color="gray" stop-opacity=".25" offset="0%"/><stop stop-color="gray" stop-opacity=".12" offset="54%"/><stop stop-color="gray" stop-opacity=".1" offset="100%"/></linearGradient><linearGradient x1="33111.991%" y1="8300%" x2="33111.991%" y2="7200%" id="e"><stop stop-color="gray" stop-opacity=".25" offset="0%"/><stop stop-color="gray" stop-opacity=".12" offset="54%"/><stop stop-color="gray" stop-opacity=".1" offset="100%"/></linearGradient><linearGradient x1="33111.991%" y1="9800%" x2="33111.991%" y2="8700%" id="f"><stop stop-color="gray" stop-opacity=".25" offset="0%"/><stop stop-color="gray" stop-opacity=".12" offset="54%"/><stop stop-color="gray" stop-opacity=".1" offset="100%"/></linearGradient><linearGradient x1="33111.991%" y1="11300%" x2="33111.991%" y2="10200%" id="g"><stop stop-color="gray" stop-opacity=".25" offset="0%"/><stop stop-color="gray" stop-opacity=".12" offset="54%"/><stop stop-color="gray" stop-opacity=".1" offset="100%"/></linearGradient><linearGradient x1="33111.991%" y1="12800%" x2="33111.991%" y2="11700%" id="h"><stop stop-color="gray" stop-opacity=".25" offset="0%"/><stop stop-color="gray" stop-opacity=".12" offset="54%"/><stop stop-color="gray" stop-opacity=".1" offset="100%"/></linearGradient><linearGradient x1="13911.989%" y1="33200%" x2="13911.989%" y2="18200%" id="i"><stop stop-color="gray" stop-opacity=".25" offset="0%"/><stop stop-color="gray" stop-opacity=".12" offset="54%"/><stop stop-color="gray" stop-opacity=".1" offset="100%"/></linearGradient><linearGradient x1="30788.378%" y1="43530.135%" x2="30788.378%" y2="28330.134%" id="j"><stop stop-color="gray" stop-opacity=".25" offset="0%"/><stop stop-color="gray" stop-opacity=".12" offset="54%"/><stop stop-color="gray" stop-opacity=".1" offset="100%"/></linearGradient><linearGradient x1="43517.748%" y1="32094.423%" x2="43517.748%" y2="30694.423%" id="k"><stop stop-color="gray" stop-opacity=".25" offset="0%"/><stop stop-color="gray" stop-opacity=".12" offset="54%"/><stop stop-color="gray" stop-opacity=".1" offset="100%"/></linearGradient><linearGradient x1="47714.033%" y1="31667.261%" x2="47714.033%" y2="30267.262%" id="l"><stop stop-color="gray" stop-opacity=".25" offset="0%"/><stop stop-color="gray" stop-opacity=".12" offset="54%"/><stop stop-color="gray" stop-opacity=".1" offset="100%"/></linearGradient><linearGradient x1="21637.699%" y1="11429%" x2="21637.699%" y2="11421.812%" id="m"><stop stop-color="gray" stop-opacity=".25" offset="0%"/><stop stop-color="gray" stop-opacity=".12" offset="54%"/><stop stop-color="gray" stop-opacity=".1" offset="100%"/></linearGradient><linearGradient x1="43122.5%" y1="58128.93%" x2="43122.5%" y2="40847.91%" id="n"><stop stop-color="gray" stop-opacity=".25" offset="0%"/><stop stop-color="gray" stop-opacity=".12" offset="54%"/><stop stop-color="gray" stop-opacity=".1" offset="100%"/></linearGradient><linearGradient x1="9137.21%" y1="13219.701%" x2="9137.21%" y2="13210.02%" id="o"><stop stop-color="gray" stop-opacity=".25" offset="0%"/><stop stop-color="gray" stop-opacity=".12" offset="54%"/><stop stop-color="gray" stop-opacity=".1" offset="100%"/></linearGradient><linearGradient x1="12699.498%" y1="61982.993%" x2="12699.498%" y2="41735.982%" id="p"><stop stop-color="gray" stop-opacity=".25" offset="0%"/><stop stop-color="gray" stop-opacity=".12" offset="54%"/><stop stop-color="gray" stop-opacity=".1" offset="100%"/></linearGradient></defs><g fill-rule="nonzero" fill="none"><path d="M376 523.05c37.003 0 67-7.611 67-17s-29.997-17-67-17-67 7.611-67 17 29.997 17 67 17zM68 531.05c37.003 0 67-7.611 67-17s-29.997-17-67-17-67 7.611-67 17 29.997 17 67 17z" fill="#F2F2F2"/><path d="M406.62 4h-383v14.5h383z" fill="#F5F5F5"/><path d="M396 0H0v486h396z" transform="translate(16.62)" fill="url(#a)"/><path d="M406.62 18.5h-383V478h383z" fill="#FFF"/><path d="M31.5 15a3.5 3.5 0 1 0 0-7 3.5 3.5 0 0 0 0 7z" fill="#FF5252"/><path d="M41.12 15a3.5 3.5 0 1 0 0-7 3.5 3.5 0 0 0 0 7z" fill="#FF0"/><path d="M50.75 15a3.5 3.5 0 1 0 0-7 3.5 3.5 0 0 0 0 7z" fill="#69F0AE"/><path d="M183.62 36h-149v9h149z" opacity=".2" fill="#11D074"/><path d="M289.62 73h-149v9h149z" fill="#F5F5F5"/><path d="M183.62 363h-149v9h149z" opacity=".5" fill="#11D074"/><path d="M50 0H0v11h50z" transform="translate(203.62 362)" fill="url(#b)"/><path d="M50 0H0v11h50z" transform="translate(203.62 418)" fill="url(#c)"/><path d="M50 0H0v11h50z" transform="translate(305.62 418)" fill="url(#d)"/><path d="M252.62 363h-47v9h47zM252.62 419h-47v9h47zM353.62 419h-47v9h47z" fill="#11D074"/><path d="M183.62 391h-149v9h149z" fill="#F5F5F5"/><path d="M354.62 391h-149v9h149z" opacity=".5" fill="#11D074"/><path d="M354.62 447h-149v9h149z" fill="#F5F5F5"/><path d="M183.62 419h-149v9h149z" opacity=".5" fill="#11D074"/><path d="M183.62 447h-149v9h149zM224.62 88h-84v9h84zM268.62 88h-29v9h29zM224.62 118h-84v9h84zM268.62 118h-29v9h29zM289.62 103h-149v9h149z" fill="#F5F5F5"/><path d="M393.62 36h-149v9h149z" opacity=".2" fill="#11D074"/><path d="M18 0H0v11h18z" transform="translate(328.62 72)" fill="url(#e)"/><path d="M18 0H0v11h18z" transform="translate(328.62 87)" fill="url(#f)"/><path d="M18 0H0v11h18z" transform="translate(328.62 102)" fill="url(#g)"/><path d="M345.62 73h-16v9h16z" fill="#FF5252"/><path d="M345.62 88h-16v9h16z" fill="#FF9800"/><path d="M345.62 103h-16v9h16z" fill="#69F0AE"/><path d="M18 0H0v11h18z" transform="translate(328.62 117)" fill="url(#h)"/><path d="M345.62 118h-16v9h16z" fill="#11D074"/><path d="M367 0H0v150h367z" transform="translate(31.62 182)" fill="url(#i)"/><path d="M393.62 185h-359v142h359z" opacity=".5" fill="#11D074"/><path d="M45.62 196h348v-11h-359v142h11z" opacity=".5" fill="#FFF"/><path d="M370 0H0v152h370z" transform="rotate(-5.2 2286.185 -265.566)" fill="url(#j)"/><path d="M397.333 177L39.811 209.539l12.87 141.416 357.522-32.538z" fill="#FFF"/><path d="M66.5 325.59l-6.2-78.77s32-34 96.6-8.8 95.06 7.41 105.56-9.61 65-36 82.66-7.53c17.66 28.47 38.84-3.54 38.84-3.54l7.16 78.67L66.5 325.59z" opacity=".5" fill="#11D074"/><path d="M98.532 229.705l.54 5.98.996-.09-.54-5.98zM100.122 247.145l.478 5.255.996-.09-.478-5.255-.996.09zm1.435 15.765l.957 10.51.996-.09-.957-10.51-.996.09zm1.913 21.02l.957 10.51.996-.09-.957-10.51-.996.09zm1.914 21.02l.478 5.255.996-.09-.478-5.255-.996.09zM106.382 315.936l.55 5.97.996-.092-.55-5.97zM160.022 239.466l.55 5.97.996-.092-.55-5.97zM161.752 258.445l.519 5.69.996-.092-.52-5.688-.995.09zm1.556 17.067l1.038 11.377.996-.09-1.038-11.378-.996.09zm2.075 22.755l.52 5.688.995-.09-.519-5.69-.996.092zM166.492 310.455l.54 5.98.996-.09-.54-5.98zM222.763 250.15l.6 5.97.994-.1-.6-5.97zM224.332 265.87l.423 4.262.995-.099-.422-4.262-.996.098zm1.268 12.787l.845 8.525.995-.099-.845-8.525-.995.099zm1.69 17.05l.422 4.262.996-.098-.423-4.263-.995.099zM228.202 304.84l.59 5.98.996-.1-.59-5.98zM279.152 214.885l.54 5.98.996-.09-.54-5.98zM280.712 232.095l.47 5.15.995-.091-.47-5.15-.995.091zm1.408 15.448l.938 10.298.996-.09-.939-10.299-.995.09zm1.876 20.596l.939 10.299.995-.09-.938-10.3-.996.092zm1.877 20.597l.47 5.15.995-.091-.47-5.15-.995.091zM286.852 299.496l.55 5.98.996-.092-.55-5.98zM319.852 206.635l.54 5.97.996-.09-.54-5.97zM321.472 224.485l.496 5.445.996-.091-.496-5.444-.996.09zm1.488 16.333l.991 10.888.996-.09-.992-10.889-.995.09zm1.983 21.776l.992 10.889.995-.09-.991-10.89-.996.092zm1.983 21.777l.496 5.444.996-.09-.496-5.445-.996.091zM327.962 295.756l.55 5.97.996-.092-.55-5.97z" fill="#11D074"/><path d="M99.295 234.255a5 5 0 1 0-.907-9.96 5 5 0 0 0 .907 9.96z" fill="#FF9800"/><path d="M160.495 244.755a5 5 0 1 0-.907-9.96 5 5 0 0 0 .907 9.96z" fill="#FF5252"/><path d="M223.699 255.065a5 5 0 1 0-.907-9.96 5 5 0 0 0 .907 9.96z" fill="#69F0AE"/><path d="M7 14A7 7 0 1 0 7 0a7 7 0 0 0 0 14z" transform="rotate(-5.2 2431.865 -2887.132)" fill="url(#k)"/><path d="M7 14A7 7 0 1 0 7 0a7 7 0 0 0 0 14z" transform="rotate(-5.2 2366.877 -3347.568)" fill="url(#l)"/><path d="M279.736 219.84a5 5 0 1 0-.907-9.958 5 5 0 0 0 .907 9.959zM321.199 212.055a5 5 0 1 0-.907-9.96 5 5 0 0 0 .907 9.96z" fill="#11D074"/><path d="M384.573 224.36a5 5 0 1 0-.907-9.96 5 5 0 0 0 .907 9.96z" fill="#69F0AE"/><path d="M0 .046l.07.23C.84-.154 0 .046 0 .046z" transform="translate(394.26 318.673)" opacity=".2" fill="url(#m)"/><path d="M60.033 172.698l16.28-2.63-2.24-10v-.14h-.06l-11.54-53v-38.65a14.266 14.266 0 0 0-.08-1.47c17.24-22.86 7-58.73 6-61.86-.18.09-.45.21-.83.36a21.05 21.05 0 0 0-.79-4.13s-5-3.18-7.73.91c-2.38 3.57-.61 5.75-.12 6.26l-.34.11a11.52 11.52 0 0 1 1.58 3.94 8.64 8.64 0 0 0-.54-1c-.63-.11-1-.21-1-.21l-.12-.11-.34.11c1.73 2.53 2.34 7 2.26 12.3a17.35 17.35 0 0 0-2-2.31 17.65 17.65 0 0 0-11.7-4.88h-.83c-.453 0-.906.03-1.36.09h-.34l-.57.08-.65.12-.47.1-.81.22-.3.09c-.34.11-.67.22-1 .35-1.096.533-2.246.949-3.43 1.24-.16 0-.32 0-.49.05a5.72 5.72 0 0 1-3.75-1.07l-.36-.28a5.302 5.302 0 0 1-.39-.37 2.542 2.542 0 0 0-.17 1.09 3.35 3.35 0 0 0 1.17 2.27c.19.164.398.305.62.42.33.172.69.274 1.06.3h.38-.09c-.23.11-.46.21-.7.3h-.05c-.26.09-.51.17-.78.24a8.68 8.68 0 0 1-4 .06l-.43-.1c-.21-.06-.43-.12-.63-.19.066.15.14.297.22.44l.08.13.18.28.11.14.2.25.12.13.25.25.1.09.37.31.13.09.27.19.18.11.24.14.2.1.25.11.21.09.28.1.35.1.26.07h1.74a5 5 0 0 0 1.5-.37l-.92.38-.46.16-.47.17-.47.14-.48.14-.47.12-.5.12-.46.09-.53.09-.44.07-.57.07H27.423c.553.16 1.067.433 1.51.8.287.207.6.375.93.5.148.043.298.076.45.1h2.24a6.54 6.54 0 0 1 2.59.83c.422.271.797.609 1.11 1-.14.23-.28.45-.4.69-.12.24-.21.4-.31.61-.2.413-.376.837-.53 1.27a14.08 14.08 0 0 0-.86 4.85V37.418c0 .24.027.48.08.72v.19c.04.293.094.583.16.87v.17c.054.24.114.477.18.71l.06.21c.168.566.372 1.12.61 1.66l.07.16c.114.247.23.487.35.72v.07c.147.267.3.53.46.79v.06c.147.24.304.473.47.7l.06.08c.36.495.75.966 1.17 1.41a14.136 14.136 0 0 0 3.77 2.83 6.299 6.299 0 0 0-.11.65 6.374 6.374 0 0 0 0 .68v5.28c-.3.16-.593.33-.88.51-12.53-5.69-31.19-46-31.19-46h-.45c1.82-1.36 0-7.28 0-7.28a8.54 8.54 0 0 0-3.5-1.16H3.853l-.2.06h-.1l-.3.11-.28.13-.1.05-.19.11-.13.61-.18.12-.11.09-.17.14-.11.1-.17.16-.1.11-.17.2-.08.1-.25.34c-2.73 4.09 0 6.37 0 6.37a40.74 40.74 0 0 0-.25 4.75c-.2 29.46 31.33 52.29 32.94 53.43-.71 1.84-6.57 18.14.07 38.49.021.05.048.097.08.14a59.08 59.08 0 0 0-17.72 55.88l.13.61h.29a4.588 4.588 0 0 1-.4 1.1c-.2.384-.445.744-.73 1.07-.31.36-.67.72-1.05 1.09l-.4.38c-1.59 1.52-3.2 3-2 3.6h17.21v-7.51h.3s-.12-.23-.3-.68v-.08h-.06c-.9-2.32-3-9.5.36-20.56 4.09-13.65 20-20.47 20-20.47l.29 1h-.06l12.48 41c0 .16 0 .32-.05.49a6.673 6.673 0 0 1-.27 1.14 7.27 7.27 0 0 1-.34.84c-.77 1.59-2.1 3.46-2.68 4.86a4.725 4.725 0 0 0-.21.59 1.82 1.82 0 0 0-.07.7.807.807 0 0 0 .53.67h.23l.48-.08h.02zm-4.82-116.73a11.627 11.627 0 0 0-1-.49v-4.96a6.32 6.32 0 0 0-.11-1.13 14.107 14.107 0 0 0 3-1.93c-.6 3.06-1.27 5.99-1.88 8.51h-.01z" transform="translate(325.947 314.002)" opacity=".2" fill="url(#n)"/><path d="M326.88 328.61s-3-2.52 0-7.06c3-4.54 8.57-1 8.57-1s2 6.55 0 8.06c-2 1.51-8.57 0-8.57 0z" fill="#AE5D29"/><path d="M358.04 497.27h-13.89a4.56 4.56 0 0 1-1.31 3.57c-1.87 2.16-5.63 4.77-3.86 5.66h19.06v-9.23z" fill="#00695C"/><path d="M343.85 500.84a4.56 4.56 0 0 0 1.31-3.57h-1a4.56 4.56 0 0 1-1.31 3.57c-1.87 2.16-5.63 4.77-3.86 5.66h1c-1.77-.89 1.99-3.49 3.86-5.66z" opacity=".2" fill="#FFF"/><path d="M407.5 494.41l-13 2.11a6.62 6.62 0 0 1-.59 4.58c-1.42 3-4.61 6.74-2.69 7.55l18.82-3-2.54-11.24zM401.16 322.46s14.87 46.91-10.07 72.88l-7.2-5.51s14.74-51.2 6.49-63.22c14.56-4.85 10.78-4.15 10.78-4.15z" fill="#00695C"/><path d="M390.88 326.6s-3-2.52 0-7.06c3-4.54 8.57-1 8.57-1s2 6.55 0 8.06c-2 1.51-8.57 0-8.57 0z" fill="#AE5D29"/><path d="M394.91 501.11a6.62 6.62 0 0 0 .59-4.59l12-2v-.16l-13 2.16a6.62 6.62 0 0 1-.59 4.58c-1.42 3-4.61 6.74-2.69 7.55l.79-.13c-1.43-1 1.54-4.59 2.9-7.41z" opacity=".2" fill="#FFF"/><path d="M385.59 373.22c0-3.9-3.159-7.06-7.055-7.06a7.057 7.057 0 0 0-7.055 7.06v6.79c0 3.9 3.159 7.06 7.055 7.06a7.058 7.058 0 0 0 7.055-7.06v-6.79z" fill="#AE5D29"/><path d="M384.9 392.85s14.56-50.57 6.63-63c-.7-.13-1.15-.23-1.15-.23l-.13-.12-.37.12c8.25 12-6.49 63.22-6.49 63.22l7.2 5.51.63-.68-6.32-4.82z" opacity=".2" fill="#FFF"/><path d="M378.79 373.47c8.627 0 15.62-6.993 15.62-15.62 0-8.627-6.993-15.62-15.62-15.62-8.627 0-15.62 6.993-15.62 15.62 0 8.627 6.993 15.62 15.62 15.62z" fill="#AE5D29"/><path d="M373.24 380.02v-6.8c0-.498.054-.994.16-1.48a15.62 15.62 0 0 1 6.26-29.49h-.88a15.62 15.62 0 0 0-7.15 29.51 7 7 0 0 0-.16 1.48v6.8a7 7 0 0 0 7.94 7 7.08 7.08 0 0 1-6.17-7.02z" opacity=".2" fill="#FFF"/><path d="M394.66 435.7s-30.13 3.4-31.24 0c-7.81-23.94 0-42.83 0-42.83a15.62 15.62 0 0 1 31.24 0v42.83z" fill="#00695C"/><path d="M394.66 435.7l13.61 62.49h-13.61l-14.11-46.36s-17.64 7.56-22.17 22.68c-4.53 15.12 0 23.68 0 23.68h-14.62l-.15-.68a65 65 0 0 1 19.8-61.81" fill="#263238"/><path d="M365.18 435.7c-7.81-23.94 0-42.83 0-42.83a15.62 15.62 0 0 1 14.61-15.59h-1a15.62 15.62 0 0 0-15.62 15.62s-7.81 18.9 0 42.83c.4 1.22 4.52 1.56 9.64 1.51-4.16-.09-7.31-.49-7.63-1.54z" opacity=".2" fill="#FFF"/><path d="M363.17 392.61s-40.31-28.22-36.28-64h9.07s21.66 46.91 35.54 51.41c13.88 4.5-8.33 12.59-8.33 12.59z" fill="#00695C"/><g opacity=".2" fill="#FFF"><path d="M380.81 452.93l13.85 45.51h2l-14.11-46.36s-.65.28-1.74.85zM365.43 435.95h-2a65 65 0 0 0-19.8 61.81l.15.68h2l-.15-.68a65 65 0 0 1 19.8-61.81z"/></g><path d="M328.4 329.12h-1.51c-4 35.78 36.28 64 36.28 64l1-.38c-4.67-3.45-39.54-30.22-35.77-63.62z" opacity=".2" fill="#FFF"/><path d="M366.33 350.87a25.848 25.848 0 0 1 1.82 6.29c1 4.38 3.26 8.75 7.15 11a15.87 15.87 0 0 0 7 1.91c3.72.23 7.75-.49 10.38-3.13a12.86 12.86 0 0 0 3.17-6.39 21.63 21.63 0 0 0-5.69-19.88 19.19 19.19 0 0 0-20-4.19 19.101 19.101 0 0 1-3.79 1.38 6.31 6.31 0 0 1-5.53-1.84 3.49 3.49 0 0 0 3.37 4.52 9.73 9.73 0 0 1-7.46.4 6.33 6.33 0 0 0 8 3.19 21.32 21.32 0 0 1-9 1.84c.65 0 1.92 1.2 2.71 1.44.992.158 1.996.228 3 .21a5.82 5.82 0 0 1 4.87 3.25z" fill="#263238"/><g opacity=".2" fill="#FFF"><path d="M364.25 340.52a9.63 9.63 0 0 1-3.7.95 9.7 9.7 0 0 0 4.71-.95 3.53 3.53 0 0 1-3.54-3.81 5.94 5.94 0 0 1-.84-.71 3.49 3.49 0 0 0 3.37 4.52zM367.41 337.87a19.1 19.1 0 0 0 3.79-1.38 17.38 17.38 0 0 1 6-1.21 17.56 17.56 0 0 0-7 1.21 19.1 19.1 0 0 1-3.79 1.38c-.18 0-.36 0-.54.06a6 6 0 0 0 1.54-.06zM359.42 347.42c-.79-.23-2.06-1.42-2.71-1.44a21.32 21.32 0 0 0 9-1.84 5.58 5.58 0 0 1-2 .42 21.33 21.33 0 0 1-8 1.42c.65 0 1.92 1.2 2.71 1.44a6.71 6.71 0 0 0 2.1.17 4.38 4.38 0 0 1-1.1-.17zM383.33 370.08a15.87 15.87 0 0 1-7-1.91c-3.89-2.27-6.11-6.64-7.15-11a25.85 25.85 0 0 0-1.82-6.29 5.82 5.82 0 0 0-4.93-3.23c-.5-.037-1-.037-1.5 0h.49a5.82 5.82 0 0 1 4.93 3.23 25.85 25.85 0 0 1 1.82 6.29c1 4.38 3.26 8.75 7.15 11a15.87 15.87 0 0 0 7 1.91h1.75-.74zM363.08 344.52a6.38 6.38 0 0 1-5.12-3.27 9.32 9.32 0 0 1-1.17-.33 6.38 6.38 0 0 0 6.29 3.6z"/></g><path d="M327.89 328.61s-3-2.52 0-7.06a4.83 4.83 0 0 1 3.74-2.29 4.9 4.9 0 0 0-4.74 2.29c-3 4.54 0 7.06 0 7.06 1.947.436 3.936.657 5.93.66a29.83 29.83 0 0 1-4.93-.66z" opacity=".2" fill="#FFF"/><path d="M.398.312l.08-.27s-1.02-.2-.08.27z" transform="translate(37.572 328.538)" opacity=".2" fill="url(#o)"/><path d="M115.4 22.722a6.591 6.591 0 0 0-.36-.93c0-.1-.1-.18-.15-.27a5.755 5.755 0 0 0-.3-.52l-.2-.26a5.093 5.093 0 0 0-.33-.39l-.23-.23c-.12-.11-.24-.21-.36-.3l-.25-.18-.4-.24-.25-.13-.45-.19-.23-.09a5.518 5.518 0 0 0-.65-.18 10.33 10.33 0 0 0-4.39.12s-4.19 6.18-2.58 8.4l-.53-.16s-31.13 34.74-48.69 41.19c-.447-.306-.91-.593-1.39-.86v-6.5a7.681 7.681 0 0 0 0-.82 7.6 7.6 0 0 0-.13-.77l.13-.07.52-.29.75-.46.48-.31c.36-.247.693-.507 1-.78l.39-.34c.24-.2.47-.41.69-.63l.4-.39c.28-.287.547-.58.8-.88l.28-.34c.24-.3.47-.607.69-.92l.28-.42c.2-.306.39-.62.57-.94l.18-.31c.22-.41.43-.84.61-1.28l.16-.39c.14-.353.27-.71.39-1.07 0-.13.09-.25.12-.38.14-.47.27-.94.37-1.43 0-.1 0-.19.05-.29.08-.407.143-.82.19-1.24v-.42c0-.51.08-1 .08-1.55a17 17 0 0 0-3.78-10.69c1.33-2.08 2.2-3.31 2.2-3.31-.8-.55-1.59-1.05-2.37-1.54l-.76-.45c-.52-.31-1-.62-1.56-.9l-.87-.46c-.47-.25-.93-.49-1.39-.71l-.89-.41-1.33-.58-.87-.35a42.3 42.3 0 0 0-1.31-.48l-.82-.28c-.45-.14-.9-.27-1.34-.39l-.73-.2c-.5-.12-1-.22-1.49-.32l-.53-.11c-.67-.12-1.33-.21-2-.27a23.711 23.711 0 0 0-12 1.84c.2-4.78 1-8.72 2.68-11.16l-.41-.14-.14.14s-.49.11-1.26.25c-.243.389-.46.793-.65 1.21a13.91 13.91 0 0 1 1.91-4.76l-.41-.14c.59-.61 2.73-3.24-.14-7.55-3.3-4.94-9.34-1.1-9.34-1.1a25.565 25.565 0 0 0-.94 5c-.46-.19-.79-.33-1-.44a124.496 124.496 0 0 0-4.69 31.36C5.54 52.802 1.04 75.622.16 80.542l-.07.39c-.06.36-.09.55-.09.55l28.31.66v45.12L7.7 170.852s7.84.25 19.64 1.76l-3.26 23.31-1.09 6.54h19.62c2.18-4.36-8.72-6.54-8.72-6.54h-.24l4.25-21.75c1.88.313 3.813.647 5.8 1 2.913.563 5.865.898 8.83 1a46.89 46.89 0 0 0 7.35-.32c1.44 11.79-.45 18.83-.81 20h-.11l-1.09 6.54h19.62c1.9-3.8-6.14-5.95-8.23-6.43l.09-.64a109.418 109.418 0 0 0 .77-22.2 26.862 26.862 0 0 0 7-4.17l.27-.24.08-.08-14.61-41c2.73-11.6-6.77-23.78-1.7-29.87 5.07-6.09 2-13.86 1.4-15.19 13.72-6 41.45-21 49.23-47a49.158 49.158 0 0 0 1.39-5.57s3.92-1.59 2.22-7.28z" transform="translate(16.8 322.888)" opacity=".2" fill="url(#p)"/><path d="M41.08 336.46s-14.87 46.91 10.07 72.88l7.2-5.51s-14.74-51.2-6.49-63.22c-14.56-4.85-10.78-4.15-10.78-4.15z" fill="#FF5252"/><path d="M51.36 340.6s3-2.52 0-7.06c-3-4.54-8.57-1-8.57-1s-2 6.55 0 8.06c2 1.51 8.57 0 8.57 0zM56.65 394.01c0 3.9 3.159 7.06 7.055 7.06a7.058 7.058 0 0 0 7.055-7.06v-6.79c0-3.9-3.159-7.06-7.055-7.06a7.058 7.058 0 0 0-7.055 7.06v6.79z" fill="#F6B9AD"/><path d="M57.34 406.85s-14.56-50.57-6.63-63c.7-.13 1.15-.23 1.15-.23l.13-.12.37.12c-8.25 12 6.49 63.22 6.49 63.22l-7.2 5.51-.63-.68 6.32-4.82z" opacity=".2" fill="#FFF"/><path d="M63.45 387.47c8.627 0 15.62-6.993 15.62-15.62 0-8.627-6.993-15.62-15.62-15.62-8.627 0-15.62 6.993-15.62 15.62 0 8.627 6.993 15.62 15.62 15.62z" fill="#F6B9AD"/><path d="M69 394.02v-6.8a7 7 0 0 0-.16-1.48 15.62 15.62 0 0 0-6.26-29.49h.88a15.62 15.62 0 0 1 7.15 29.51 7 7 0 0 1 .16 1.48v6.8a7 7 0 0 1-7.94 7 7.08 7.08 0 0 0 6.17-7.02z" opacity=".2" fill="#FFF"/><path d="M47.58 449.7s30.13 3.4 31.24 0c3.6-11-6-22.89-1.2-28.7 5-6 1.2-14.13 1.2-14.13a15.62 15.62 0 0 0-31.24 0v42.83z" fill="#FF5252"/><path d="M77.66 421c5-6 1.2-14.13 1.2-14.13a15.62 15.62 0 0 0-15.62-15.62c-.34 0-.67 0-1 .05a15.61 15.61 0 0 1 14.62 15.57s3.8 8.13-1.2 14.13c-4.84 5.81 4.8 17.69 1.2 28.7-.34 1.05-3.45 1.45-7.58 1.51 5.09.05 9.19-.29 9.58-1.51 3.64-11.02-6.04-22.89-1.2-28.7z" opacity=".2" fill="#FFF"/><path d="M72.43 448.7c11 15.59 15.87 39.15 12.72 61.81l-.09.68h-9.39s2.91-8.57 0-23.68a37.39 37.39 0 0 0-14.24-22.68l-9.06 46.36h-8.74l8.74-62.49h20.06zM125.39 358.83s3.63-1.52 2.07-6.75-7.9-3.47-7.9-3.47-3.85 5.67-2.36 7.71c1.49 2.04 8.19 2.51 8.19 2.51z" fill="#F6B9AD"/><path d="M71.94 409.39s46.81-15.17 53.44-50.56l-8.67-2.66s-34.45 38.46-49 38.73c-14.55.27 4.23 14.49 4.23 14.49z" fill="#FF5252"/><path d="M123.79 358.87l1.45.44c-6.63 35.39-53.44 50.56-53.44 50.56l-.83-.65c5.53-1.92 46.64-17.34 52.82-50.35z" opacity=".2" fill="#FFF"/><g opacity=".2" fill="#FFF"><path d="M59.42 464.83l-9.06 46.36h2l8.8-45a21.637 21.637 0 0 0-1.74-1.36zM72.43 448.7h-2c11 15.59 15.87 39.15 12.72 61.81l-.09.68h2l.09-.68c3.15-22.66-1.7-46.22-12.72-61.81z"/></g><path d="M124.42 358.52s3.63-1.52 2.07-6.75a4.83 4.83 0 0 0-2.9-3.29 4.9 4.9 0 0 1 3.86 3.58c1.56 5.22-2.07 6.75-2.07 6.75a27.321 27.321 0 0 1-5.86-1.1 29.83 29.83 0 0 0 4.9.81z" opacity=".2" fill="#FFF"/><path d="M47.58 448l-19 40c11.08.553 22.108 1.89 33 4 21 4 31-6 31-6l-13.55-38H47.58z" fill="#929598"/><path d="M52.62 511s10 2 8 6h-18l1-6h9zM84.62 511s10 2 8 6h-18l1-6h9z" fill="#FF5252"/><path d="M77.62 359s-24 34-13 48l-43-1s12-77 56-47z" fill="#FCCC63"/><path d="M77.62 359c-6.2-4.23-11.76-6.33-16.75-6.82A42.33 42.33 0 0 1 72.62 358s-24 34-13 48l-37.85-.88c-.1.57-.15.88-.15.88l43 1c-11-14 13-48 13-48zM79.08 448h-3l13.55 38s-6.46 6.45-19.9 6.91c15.47.5 22.9-6.91 22.9-6.91l-13.55-38zM52.62 511h-2s10 2 8 6h2c2-4-8-6-8-6zM84.62 511h-2s10 2 8 6h2c2-4-8-6-8-6z" opacity=".2" fill="#FFF"/></g></svg>