<svg viewBox="0 0 449 180" version="1.1" xmlns="http://www.w3.org/2000/svg" xmlns:xlink="http://www.w3.org/1999/xlink">
<title>landing-page-graphs</title>
<desc>Created using Figma</desc>
<g id="Canvas" transform="translate(107 -124)">
<g id="landing-page-graphs">
<g id="Vector">
<use xlink:href="#path0_fill" transform="translate(314.62 280.68)" fill="#FF5252"/>
</g>
<g id="Vector">
<use xlink:href="#path1_fill" transform="translate(-2.38 166.68)" fill="url(#paint1_linear)"/>
</g>
<g id="Vector">
<use xlink:href="#path2_fill" transform="translate(7.62 171.68)" fill="#FFFFFF"/>
</g>
<g id="Vector">
<use xlink:href="#path3_stroke" transform="translate(18.62 248.68)" fill="#11D074"/>
</g>
<g id="Vector">
<use xlink:href="#path4_fill" transform="translate(21.62 190.68)" fill="url(#paint4_linear)"/>
</g>
<g id="Vector">
<use xlink:href="#path5_fill" transform="translate(24.12 193.18)" fill="#11D074"/>
</g>
<g id="Vector">
<use xlink:href="#path6_fill" transform="translate(274.62 229.68)" fill="#69F0AE"/>
</g>
<g id="Vector">
<use xlink:href="#path7_fill" transform="translate(199.62 208.68)" fill="#FF9800"/>
</g>
<g id="Vector">
<use xlink:href="#path8_fill" transform="translate(111.62 214.68)" fill="#FF5252"/>
</g>
<g id="Vector">
<use xlink:href="#path9_fill" transform="translate(7.62 266.68)" fill="#FF5252"/>
</g>
<g id="Vector">
<use xlink:href="#path10_fill" transform="translate(10.62 277.68)" fill="url(#paint10_linear)"/>
</g>
<g id="Vector">
<use xlink:href="#path0_fill" transform="translate(13.62 280.68)" fill="#FF5252"/>
</g>
<g id="Vector">
<use xlink:href="#path11_fill" transform="translate(-0.380005 175.68)" fill="#FF5252"/>
</g>
<g id="Vector" opacity="0.2">
<use xlink:href="#path11_fill" transform="translate(-0.380005 175.68)"/>
</g>
<g id="Vector">
<use xlink:href="#path12_fill" transform="translate(-106.17 124.72)" fill="url(#paint14_linear)"/>
</g>
<g id="Vector">
<use xlink:href="#path13_fill" transform="translate(-75.066 187.25)" fill="#11D074"/>
</g>
<g id="Vector" opacity="0.2">
<use xlink:href="#path14_fill" transform="translate(-73.71 193.52)" fill="#FFFFFF"/>
</g>
<g id="Vector">
<use xlink:href="#path15_fill" transform="translate(-6.33002 182.75)" fill="#FFDBB4"/>
</g>
<g id="Vector" opacity="0.2">
<use xlink:href="#path16_fill" transform="translate(-5.25 185)" fill="#FFFFFF"/>
</g>
<g id="&#60;Path&#62;">
<use xlink:href="#path17_fill" transform="translate(-50.8 287.27)" fill="#11D074"/>
</g>
<g id="Vector" opacity="0.2">
<use xlink:href="#path18_fill" transform="translate(-37.934 287.27)" fill="#FFFFFF"/>
</g>
<g id="&#60;Path&#62;">
<use xlink:href="#path19_fill" transform="translate(-102.81 284.41)" fill="#11D074"/>
</g>
<g id="Vector" opacity="0.2">
<use xlink:href="#path20_fill" transform="translate(-100.31 284.37)" fill="#FFFFFF"/>
</g>
<g id="Vector">
<use xlink:href="#path21_fill" transform="matrix(-1 1.22465e-16 -1.22465e-16 -1 -64.24 177.07)" fill="#FFDBB4"/>
</g>
<g id="Vector">
<use xlink:href="#path22_fill" transform="translate(-87.17 132.23)" fill="#FFDBB4"/>
</g>
<g id="Vector" opacity="0.2">
<use xlink:href="#path23_fill" transform="translate(-72.42 132.25)" fill="#FFFFFF"/>
</g>
<g id="Vector">
<use xlink:href="#path24_fill" transform="translate(-87.42 167.25)" fill="#11D074"/>
</g>
<g id="Vector">
<use xlink:href="#path25_fill" transform="translate(-101.03 225.7)" fill="#929598"/>
</g>
<g id="Vector" opacity="0.2">
<use xlink:href="#path26_fill" transform="translate(-72.55 167.28)" fill="#FFFFFF"/>
</g>
<g id="Group" opacity="0.2">
<g id="Vector" opacity="0.2">
<use xlink:href="#path27_fill" transform="translate(-89.42 242.08)" fill="#FFFFFF"/>
</g>
<g id="Vector" opacity="0.2">
<use xlink:href="#path28_fill" transform="translate(-58.19 225.95)" fill="#FFFFFF"/>
</g>
</g>
<g id="Vector">
<use xlink:href="#path13_fill" transform="translate(-77.066 177.25)" fill="#11D074"/>
</g>
<g id="Vector" opacity="0.2">
<use xlink:href="#path14_fill" transform="translate(-75.71 183.52)" fill="#FFFFFF"/>
</g>
<g id="Vector">
<use xlink:href="#path15_fill" transform="translate(-8.33002 172.75)" fill="#FFDBB4"/>
</g>
<g id="Vector" opacity="0.2">
<use xlink:href="#path16_fill" transform="translate(-7.25 175)" fill="#FFFFFF"/>
</g>
<g id="Vector">
<use xlink:href="#path29_fill" transform="translate(-93.38 129.892)" fill="#D6B370"/>
</g>
<g id="Vector" opacity="0.2">
<use xlink:href="#path30_fill" transform="translate(-75.32 129.957)" fill="#FFFFFF"/>
</g>
</g>
</g>
<defs>
<linearGradient id="paint1_linear" x1="0" y1="0" x2="1" y2="0" gradientUnits="userSpaceOnUse" gradientTransform="matrix(0 -14641 41624 0 188209 83209.3)">
<stop offset="0" stop-color="#808080" stop-opacity="0.25"/>
<stop offset="0.54" stop-color="#808080" stop-opacity="0.12"/>
<stop offset="1" stop-color="#808080" stop-opacity="0.1"/>
</linearGradient>
<linearGradient id="paint4_linear" x1="0" y1="0" x2="1" y2="0" gradientUnits="userSpaceOnUse" gradientTransform="matrix(0 -3025 2475 0 20457.9 35512.4)">
<stop offset="0" stop-color="#808080" stop-opacity="0.25"/>
<stop offset="0.54" stop-color="#808080" stop-opacity="0.12"/>
<stop offset="1" stop-color="#808080" stop-opacity="0.1"/>
</linearGradient>
<linearGradient id="paint10_linear" x1="0" y1="0" x2="1" y2="0" gradientUnits="userSpaceOnUse" gradientTransform="matrix(0 -484 484 0 9869.64 15393)">
<stop offset="0" stop-color="#808080" stop-opacity="0.25"/>
<stop offset="0.54" stop-color="#808080" stop-opacity="0.12"/>
<stop offset="1" stop-color="#808080" stop-opacity="0.1"/>
</linearGradient>
<linearGradient id="paint14_linear" x1="0" y1="0" x2="1" y2="0" gradientUnits="userSpaceOnUse" gradientTransform="matrix(13066.8 0 0 20486 55599.5 116793)">
<stop offset="0" stop-color="#808080" stop-opacity="0.08"/>
<stop offset="0.54" stop-color="#808080" stop-opacity="0.12"/>
<stop offset="1" stop-color="#808080" stop-opacity="0.1"/>
</linearGradient>
<path id="path0_fill" d="M 8 16C 12.4183 16 16 12.4183 16 7.99999C 16 3.58171 12.4183 -7.32422e-06 8 -7.32422e-06C 3.58172 -7.32422e-06 -4.88281e-06 3.58171 -4.88281e-06 7.99999C -4.88281e-06 12.4183 3.58172 16 8 16Z"/>
<path id="path1_fill" d="M 344 -7.32422e-06L -4.88281e-06 -7.32422e-06L -4.88281e-06 121L 344 121L 344 -7.32422e-06Z"/>
<path id="path2_fill" d="M 328 -7.32422e-06L -4.88281e-06 -7.32422e-06L -4.88281e-06 95L 328 95L 328 -7.32422e-06Z"/>
<path id="path3_stroke" d="M -4.88281e-06 1.49999L 304 1.49999L 304 -1.50001L -4.88281e-06 -1.50001L -4.88281e-06 1.49999Z"/>
<path id="path4_fill" d="M 45 -7.32422e-06L -4.88281e-06 -7.32422e-06L -4.88281e-06 55L 45 55L 45 -7.32422e-06Z"/>
<path id="path5_fill" d="M 40 -7.32422e-06L -4.88281e-06 -7.32422e-06L -4.88281e-06 51L 40 51L 40 -7.32422e-06Z"/>
<path id="path6_fill" d="M 40 -7.32422e-06L -4.88281e-06 -7.32422e-06L -4.88281e-06 16L 40 16L 40 -7.32422e-06Z"/>
<path id="path7_fill" d="M 40 -7.32422e-06L -4.88281e-06 -7.32422e-06L -4.88281e-06 36L 40 36L 40 -7.32422e-06Z"/>
<path id="path8_fill" d="M 40 -7.32422e-06L -4.88281e-06 -7.32422e-06L -4.88281e-06 30L 40 30L 40 -7.32422e-06Z"/>
<path id="path9_fill" d="M 328 -7.32422e-06L -4.88281e-06 -7.32422e-06L -4.88281e-06 14L 328 14L 328 -7.32422e-06Z"/>
<path id="path10_fill" d="M 11 22C 17.0751 22 22 17.0751 22 11C 22 4.92486 17.0751 -7.32422e-06 11 -7.32422e-06C 4.92486 -7.32422e-06 -4.88281e-06 4.92486 -4.88281e-06 11C -4.88281e-06 17.0751 4.92486 22 11 22Z"/>
<path id="path11_fill" d="M 8 -7.32422e-06L -4.88281e-06 -7.32422e-06L -4.88281e-06 105L 8 105L 8 -7.32422e-06Z"/>
<path id="path12_fill" d="M 114.32 62.12C 114.32 62.01 114.32 61.91 114.32 61.8C 114.32 61.69 114.32 61.47 114.32 61.31C 114.32 61.15 114.32 61.1 114.26 61C 114.2 60.9 114.19 60.7 114.14 60.56C 114.09 60.42 114.08 60.37 114.04 60.27C 114 60.17 113.92 59.99 113.86 59.85L 113.74 59.6C 113.66 59.46 113.57 59.32 113.48 59.19L 113.35 59C 113.219 58.8197 113.079 58.6461 112.93 58.48C 112.132 57.63 111.187 56.932 110.14 56.42C 110.959 55.5399 111.571 54.4874 111.93 53.34C 112.034 53.0331 112.114 52.7189 112.17 52.4C 112.17 52.3 112.17 52.2 112.17 52.11C 112.197 51.9177 112.214 51.7241 112.22 51.53C 112.22 51.42 112.22 51.32 112.22 51.21C 112.22 51.1 112.22 50.88 112.22 50.72C 112.22 50.56 112.22 50.51 112.16 50.41C 112.1 50.31 112.09 50.11 112.04 49.97C 111.99 49.83 111.98 49.78 111.94 49.68C 111.9 49.58 111.82 49.4 111.76 49.26L 111.64 49.01C 111.56 48.87 111.47 48.73 111.38 48.6L 111.25 48.41C 111.119 48.2297 110.979 48.0562 110.83 47.89C 109.833 46.8446 108.622 46.026 107.28 45.49C 107.28 45.49 100.93 47.84 100.51 50.42C 95.85 51.42 68.69 57.07 50.04 56.62L 49.9 56.25C 49.9012 53.233 49.0797 50.2727 47.5238 47.6878C 45.9679 45.1029 43.7367 42.9912 41.07 41.58L 41.07 35.3C 41.0843 35.0335 41.0843 34.7665 41.07 34.5C 41.0432 34.2448 41.0032 33.9911 40.95 33.74L 41.07 33.67L 41.58 33.39L 42.32 32.94L 42.79 32.63C 43.1367 32.39 43.47 32.1367 43.79 31.87L 44.17 31.54C 44.4 31.34 44.62 31.14 44.84 30.93L 45.23 30.55C 45.5033 30.27 45.7634 29.9833 46.01 29.69L 46.28 29.35C 46.5133 29.0567 46.7367 28.7567 46.95 28.45L 47.22 28.04C 47.4133 27.74 47.6 27.4333 47.78 27.12L 47.95 26.82C 48.17 26.42 48.37 26 48.55 25.58L 48.7 25.2C 48.84 24.86 48.9666 24.5267 49.08 24.2L 49.2 23.83C 49.34 23.37 49.46 22.91 49.56 22.44C 49.56 22.35 49.56 22.25 49.61 22.16C 49.6833 21.76 49.7433 21.3567 49.79 20.95C 49.79 20.81 49.79 20.68 49.79 20.54C 49.79 20.04 49.87 19.54 49.87 19.03C 49.8698 16.1884 49.1361 13.395 47.74 10.92C 48.81 10.66 49.46 10.45 49.38 10.35C 48.97 9.79999 48.56 9.27998 48.13 8.77998L 47.72 8.31001C 47.42 7.97001 47.13 7.65001 46.83 7.31001L 46.35 6.82002C 46.05 6.52002 45.75 6.23998 45.45 5.96998L 44.98 5.55C 44.6 5.23 44.22 4.92001 43.84 4.62001L 43.59 4.42C 43.13 4.08 42.67 3.76 42.2 3.42L 41.68 3.09999C 41.38 2.90999 41.07 2.73002 40.76 2.57002L 40.14 2.25001L 39.28 1.83998L 38.65 1.56001C 38.35 1.43001 38.04 1.31997 37.73 1.20997L 37.16 1.00001C 36.7 0.850012 36.24 0.709978 35.78 0.589978L 35.07 0.430005L 34.3 0.269971L 33.53 0.149976L 32.82 0.0700195L 32.03 1.2207e-05L 31.35 1.2207e-05L 30.56 1.2207e-05C 30.1267 1.2207e-05 29.6934 0.0200098 29.26 0.0600098C 19.03 0.90001 10.07 9.83001 10.07 24.06L 10.07 35.8L 26.07 35.8L 26.07 41.14C 23.1943 42.4668 20.7583 44.589 19.0501 47.2559C 17.3419 49.9228 16.4327 53.0229 16.43 56.19L 16.43 101.7L 2.84999 164.09L 2.67 164.09L -1.34277e-05 176L 19.16 179.1L 19.99 179.23C 21.99 178.37 18.64 174.34 17.13 171.23C 16.9758 170.905 16.8422 170.571 16.73 170.23C 16.5191 169.603 16.3913 168.95 16.35 168.29L 31.07 120L 31 120L 31.35 118.87C 31.35 118.87 50.09 126.87 54.91 142.96C 58.82 155.96 56.39 164.42 55.33 167.16L 55.26 167.16L 55.26 167.32C 55.05 167.84 54.9 168.13 54.9 168.13L 55.26 168.13L 55.26 176.96L 75.52 176.96C 77.4 176.01 73.41 173.24 71.42 170.96C 70.7685 170.237 70.3139 169.359 70.1 168.41L 70.44 168.41L 70.6 167.69C 73.147 155.86 72.5624 143.57 68.9039 132.035C 65.2455 120.5 58.6398 110.12 49.74 101.92C 49.777 101.867 49.8072 101.81 49.83 101.75C 51.7422 95.8983 52.9212 89.832 53.34 83.69C 68.83 85.17 89.44 84.11 104.85 72.17C 106.321 71.0585 107.727 69.8632 109.06 68.59C 110.39 68.49 112.72 67.75 114.01 63.99C 114.114 63.6832 114.194 63.3689 114.25 63.05C 114.25 62.95 114.25 62.85 114.25 62.76C 114.286 62.5483 114.309 62.3345 114.32 62.12Z"/>
<path id="path13_fill" d="M 2.05595 17.21C 2.05595 17.21 48.956 32.12 74.936 7.21L 69.4259 -1.95312e-05C 69.4259 -1.95312e-05 19.026 11.23 7.01597 2.99998C -4.99403 -5.23002 2.05595 17.21 2.05595 17.21Z"/>
<path id="path14_fill" d="M 72.26 0L 73.18 1.20001C 47.18 26.12 0.300027 11.2 0.300027 11.2C 0.300027 11.2 0.179978 10.82 -2.19727e-05 10.2C 5.58998 11.87 48.02 23.28 72.26 0Z"/>
<path id="path15_fill" d="M 5.20004 11.7C 5.20004 11.7 9.04003 12.57 10.81 7.42002C 12.58 2.27002 6.41006 -1.95312e-05 6.41006 -1.95312e-05C 6.41006 -1.95312e-05 -0.0199705 2.37 2.94699e-05 4.89C 0.0200295 7.41 5.20004 11.7 5.20004 11.7Z"/>
<path id="path16_fill" d="M 3.51001 8.64C 3.51001 8.64 7.35 9.51003 9.12 4.36003C 9.39412 3.64929 9.49624 2.88376 9.41803 2.12602C 9.33982 1.36827 9.0835 0.639746 8.66998 -1.95312e-05C 9.31968 0.669855 9.76461 1.51136 9.95239 2.42546C 10.1402 3.33955 10.063 4.28827 9.72998 5.16001C 7.95998 10.32 4.12 9.43998 4.12 9.43998C 2.59353 8.15793 1.21198 6.71266 1.13687e-13 5.12999C 1.07045 6.39547 2.24453 7.56954 3.51001 8.64L 3.51001 8.64Z"/>
<path id="path17_fill" d="M 1.2207e-05 0L 13.89 0C 13.8386 0.65428 13.929 1.31198 14.1551 1.9281C 14.3812 2.54423 14.7376 3.10427 15.2 3.57001C 17.07 5.73001 20.83 8.33998 19.06 9.22998L 1.2207e-05 9.22998L 1.2207e-05 0Z"/>
<path id="path18_fill" d="M 1.32403 3.57001C 0.861629 3.10427 0.505192 2.54423 0.279106 1.9281C 0.0530211 1.31198 -0.0373814 0.65428 0.0140306 1.13687e-13L 1.01403 1.13687e-13C 0.962619 0.65428 1.05302 1.31198 1.27911 1.9281C 1.50519 2.54423 1.86163 3.10427 2.32403 3.57001C 4.19403 5.73001 7.95401 8.33998 6.18401 9.22998L 5.18401 9.22998C 6.95401 8.33998 3.19403 5.74001 1.32403 3.57001Z"/>
<path id="path19_fill" d="M 2.54001 1.46484e-05L 15.54 2.13002C 15.1806 3.67802 15.39 5.30361 16.13 6.70998C 17.55 9.70998 20.74 13.45 18.82 14.26L 2.44141e-06 11.26L 2.54001 1.46484e-05Z"/>
<path id="path20_fill" d="M 12.64 6.74003C 11.9 5.33366 11.6906 3.70801 12.05 2.16001L 2.44141e-06 0.16001L 2.44141e-06 -2.44141e-05L 13 2.12998C 12.6406 3.67798 12.85 5.30364 13.59 6.71C 15.01 9.71 18.2 13.45 16.28 14.26L 15.49 14.13C 16.97 13.15 14 9.56003 12.64 6.74003Z"/>
<path id="path21_fill" d="M 14.11 7.06001C 14.11 3.16088 10.9514 1.46484e-05 7.05502 1.46484e-05C 3.15865 1.46484e-05 2.44141e-05 3.16088 2.44141e-05 7.06001L 2.44141e-05 13.85C 2.44141e-05 17.7491 3.15865 20.91 7.05502 20.91C 10.9514 20.91 14.11 17.7491 14.11 13.85L 14.11 7.06001Z"/>
<path id="path22_fill" d="M 15.62 31.24C 24.2467 31.24 31.24 24.2467 31.24 15.62C 31.24 6.99329 24.2467 -1.95312e-05 15.62 -1.95312e-05C 6.99332 -1.95312e-05 -1.34277e-05 6.99329 -1.34277e-05 15.62C -1.34277e-05 24.2467 6.99332 31.24 15.62 31.24Z"/>
<path id="path23_fill" d="M 6.42 37.77L 6.42 30.97C 6.41942 30.4724 6.36581 29.9762 6.26003 29.49C 9.31039 27.9233 11.7604 25.3965 13.2321 22.2992C 14.7039 19.2019 15.1155 15.7063 14.4034 12.3519C 13.6913 8.9975 11.8952 5.97063 9.29213 3.73832C 6.68907 1.50601 3.42378 0.192329 1.70898e-05 -1.87582e-05L 0.880022 -1.87582e-05C 4.38381 -0.00112065 7.78623 1.17585 10.5404 3.34172C 13.2946 5.50758 15.2406 8.53655 16.0657 11.9418C 16.8908 15.3471 16.5469 18.9309 15.0895 22.1172C 13.6321 25.3035 11.1457 27.9072 8.02999 29.51C 8.13577 29.9962 8.18944 30.4924 8.19002 30.99L 8.19002 37.79C 8.19912 38.794 7.99211 39.7882 7.58309 40.7051C 7.17406 41.6221 6.57261 42.4403 5.81948 43.1042C 5.06634 43.7682 4.17919 44.2624 3.21822 44.5533C 2.25725 44.8441 1.24494 44.9249 0.250017 44.79C 1.95565 44.569 3.52249 43.7346 4.65792 42.4427C 5.79334 41.1509 6.41969 39.4899 6.42 37.77Z"/>
<path id="path24_fill" d="M -1.34277e-05 58.45C -1.34277e-05 58.45 30.13 61.85 31.24 58.45C 39.05 34.51 31.24 15.62 31.24 15.62C 31.24 11.4773 29.5943 7.50431 26.665 4.57499C 23.7357 1.64567 19.7627 -1.95312e-05 15.62 -1.95312e-05L 15.62 -1.95312e-05C 11.4773 -1.95312e-05 7.50432 1.64567 4.575 4.57499C 1.64568 7.50431 -1.34277e-05 11.4773 -1.34277e-05 15.62L -1.34277e-05 58.45Z"/>
<path id="path25_fill" d="M 13.61 -7.32422e-06L 1.2207e-06 62.49L 13.61 62.49L 27.72 16.13C 27.72 16.13 45.36 23.69 49.89 38.81C 54.42 53.93 49.89 62.49 49.89 62.49L 64.53 62.49L 64.68 61.81C 67.0851 50.6757 66.5219 39.1049 63.0468 28.2568C 59.5718 17.4088 53.3069 7.66438 44.88 -7.32422e-06"/>
<path id="path26_fill" d="M 14.61 58.42C 22.42 34.48 14.61 15.59 14.61 15.59C 14.6107 11.6217 13.1009 7.80187 10.3874 4.90632C 7.67387 2.01077 3.96002 0.256603 1.2207e-05 9.76562e-06C 0.330012 9.76562e-06 0.670012 9.76562e-06 1.00001 9.76562e-06C 5.14269 9.76562e-06 9.11568 1.6457 12.045 4.57502C 14.9743 7.50434 16.62 11.4773 16.62 15.62C 16.62 15.62 24.43 34.52 16.62 58.45C 16.22 59.67 12.1 60.01 6.97999 59.96C 11.14 59.87 14.27 59.47 14.61 58.42Z"/>
<path id="path27_fill" d="M 15.85 0.849973L 1.99999 46.36L -1.34277e-05 46.36L 14.11 -2.44141e-06C 14.11 -2.44141e-06 14.76 0.279973 15.85 0.849973Z"/>
<path id="path28_fill" d="M -2.44141e-06 -7.32422e-06L 2 -7.32422e-06C 10.427 7.66438 16.6918 17.4088 20.1669 28.2568C 23.6419 39.1049 24.2051 50.6757 21.8 61.81L 21.65 62.49L 19.65 62.49L 19.8 61.81C 22.2051 50.6757 21.6419 39.1049 18.1669 28.2568C 14.6918 17.4088 8.42696 7.66438 -2.44141e-06 -7.32422e-06L -2.44141e-06 -7.32422e-06Z"/>
<path id="path29_fill" d="M 23 12.7781L 22 33.7781L -4.88281e-06 33.7781L -4.88281e-06 22.6281C -4.88281e-06 0.238119 23.67 -8.26191 37 9.72809C 37.33 10.2181 23 12.7781 23 12.7781Z"/>
<path id="path30_fill" d="M -7.32422e-06 0.0527491C 5.60999 0.512749 11.38 3.57273 15.94 9.72273C 16.27 10.1627 1.94 12.7227 1.94 12.7227L 0.939995 33.7227L 3.94 33.7227L 4.94 12.7227C 4.94 12.7227 19.27 10.1627 18.94 9.72273C 13.57 2.46273 6.50999 -0.437251 -7.32422e-06 0.0527491Z"/>
</defs>
</svg>
